<svg t="1598511411680" class="icon" viewBox="0 0 1024 1024" version="1.1" xmlns="http://www.w3.org/2000/svg" p-id="21798" width="200" height="200"><path d="M512 0c282.7776 0 512 229.2224 512 512s-229.2224 512-512 512S0 794.7776 0 512 229.2224 0 512 0zM298.1888 295.4752c-68.3008 0-68.3008 0-123.4944 32.1024l-12.0832 7.5264v86.1184c55.808-48.0256 55.808-48.0256 115.5072-48.0256 71.0656 0 71.0656 0 71.0656 66.304 0 29.3888 0 29.3888-16.7936 56.6784-14.6944 23.9104-14.6944 23.9104-48.64 57.6512l-10.1376 9.8816-133.5296 128.1024V768h303.0016v-80.6912H251.392v-1.792l96.9216-87.296c98.9696-89.3952 98.9696-89.3952 98.9696-171.008 0-61.7984 0-61.7984-40.192-96.768-40.192-34.9696-40.192-34.9696-108.9024-34.9696z m399.872 7.8336H537.6V768h159.8976c109.5168 0 109.5168 0 178.7904-65.2288 69.3248-65.28 69.3248-65.28 69.3248-172.9536 0-220.2112 0-220.2112-233.984-226.304l-13.5168-0.2048z m-7.7824 80.9984c67.2256 0 67.2256 0 109.2096 38.8608 41.984 38.8096 41.984 38.8096 41.984 108.1344 0 71.68 0 71.68-40.192 113.664-40.192 42.0352-40.192 42.0352-110.6944 42.0352h-53.9648V384.3072h53.6576z" fill="#666666" p-id="21799"></path></svg>
