<svg t="1602641376941" class="icon" viewBox="0 0 1024 1024" version="1.1" xmlns="http://www.w3.org/2000/svg" p-id="23162" width="200" height="200"><path d="M512 0c282.7776 0 512 229.2224 512 512s-229.2224 512-512 512S0 794.7776 0 512 229.2224 0 512 0zM282.88 295.4752c-57.856 0-57.856 0-102.1952 19.712l-10.9056 5.2224v80.0768c44.1344-30.5664 44.1344-30.5664 90.9312-30.5664 71.68 0 71.68 0 71.68 59.392 0 59.4944 0 59.4944-83.456 62.7712l-10.1376 0.2048H200.704v74.752h41.4208c49.4592 0 49.4592 0 76.9024 17.408 27.4944 17.3568 27.4944 17.3568 27.4944 50.3296 0 32.1024 0 32.1024-23.1424 49.5104-23.04 17.408-23.04 17.408-62.3616 17.408-55.1936 0-55.1936 0-98.0992-27.4944l-10.496-7.3216v85.504c43.776 23.7056 43.776 23.7056 115.456 23.7056 80.7424 0 80.7424 0 129.1776-37.1712 48.4352-37.2224 48.4352-37.2224 48.4352-103.5264 0-43.2128 0-43.2128-29.0816-73.3184-25.856-26.8288-25.856-26.8288-67.1744-34.048l-10.5472-1.536v-1.536C431.104 501.6576 431.104 501.6576 431.104 410.4704c0-54.016 0-54.016-41.1136-84.48s-41.1136-30.464-107.1104-30.464z m415.232 7.8336H537.6V768h159.8976c109.5168 0 109.5168 0 178.7904-65.2288 69.3248-65.28 69.3248-65.28 69.3248-172.9536 0-220.2112 0-220.2112-233.984-226.304l-13.5168-0.2048z m-7.8336 80.9984c67.2256 0 67.2256 0 109.2096 38.8608 41.984 38.8096 41.984 38.8096 41.984 108.1344 0 71.68 0 71.68-40.192 113.664-40.192 42.0352-40.192 42.0352-110.6944 42.0352h-53.9648V384.3072h53.6576z" fill="#666666" p-id="23163"></path></svg>
