<?xml version="1.0" standalone="no"?><!DOCTYPE svg PUBLIC "-//W3C//DTD SVG 1.1//EN" "http://www.w3.org/Graphics/SVG/1.1/DTD/svg11.dtd"><svg t="1596522442159" class="icon" viewBox="0 0 1677 1024" version="1.1" xmlns="http://www.w3.org/2000/svg" p-id="5231" width="327.5390625" height="200" xmlns:xlink="http://www.w3.org/1999/xlink"><defs><style type="text/css"></style></defs><path d="M0 854.646154a838.892308 169.353846 0 1 0 1677.784615 0 838.892308 169.353846 0 1 0-1677.784615 0Z" fill="#F4F7FF" p-id="5232"></path><path d="M732.010338 771.938462h727.748924a7.876923 7.876923 0 0 1 4.647384 14.241476l-194.142523 141.784616a7.876923 7.876923 0 0 1-4.647385 1.512369H358.069169a7.876923 7.876923 0 0 1-2.796307-15.241846l373.941169-141.784615a7.876923 7.876923 0 0 1 2.796307-0.512z" fill="#E7EBF4" p-id="5233"></path><path d="M1220.844308 882.215385H456.940308C404.692677 882.215385 362.338462 839.861169 362.338462 787.605662V94.609723C362.338462 42.354215 404.692677 0 456.940308 0h763.904C1273.084062 0 1315.446154 42.354215 1315.446154 94.609723v692.995939c0 52.255508-42.354215 94.609723-94.601846 94.609723" fill="#3E75FC" p-id="5234"></path><path d="M1181.459692 921.6H417.555692C365.308062 921.6 322.953846 879.245785 322.953846 826.990277V133.994338C322.953846 81.738831 365.308062 39.384615 417.555692 39.384615h763.904C1233.699446 39.384615 1276.061538 81.738831 1276.061538 133.994338v692.995939c0 52.255508-42.354215 94.609723-94.601846 94.609723" fill="#C5D5FE" p-id="5235"></path><path d="M814.473846 629.681231v22.512246a13.548308 13.548308 0 0 1-13.508923 13.508923 13.548308 13.548308 0 0 1-13.508923-13.5168V629.681231a22.496492 22.496492 0 0 1 13.508923-40.511016 22.528 22.528 0 0 1 13.501046 40.511016zM923.411692 515.308308H678.5024a21.669415 21.669415 0 0 0-21.6064 21.614277v181.88603a21.669415 21.669415 0 0 0 21.6064 21.622154h244.917169a21.677292 21.677292 0 0 0 21.614277-21.622154v-181.878153a21.677292 21.677292 0 0 0-21.614277-21.622154z m-23.410215-6.750523h-36.013292v-33.760493c0-34.760862-28.278154-63.031138-63.031139-63.031138-34.760862 0-63.031138 28.278154-63.031138 63.031138v33.760493H701.912615v-33.760493a98.225231 98.225231 0 0 1 29.0816-69.970707 98.225231 98.225231 0 0 1 69.970708-29.0816c26.387692 0 51.231508 10.318769 69.962831 29.0816 18.731323 18.770708 29.0816 43.583015 29.0816 69.970707v33.760493zM322.953846 236.307692h953.107692v-39.384615H322.953846zM1169.723077 102.4a19.715938 19.715938 0 0 0-19.692308 19.692308c0 10.8544 8.830031 19.692308 19.692308 19.692307s19.692308-8.837908 19.692308-19.692307-8.830031-19.692308-19.692308-19.692308m0 47.261538c-15.202462 0-27.569231-12.366769-27.569231-27.56923s12.366769-27.569231 27.569231-27.569231 27.569231 12.366769 27.569231 27.569231-12.366769 27.569231-27.569231 27.56923M1031.427938 95.799138l20.141293 20.141293 20.141292-20.141293a4.348062 4.348062 0 1 1 6.144 6.151877l-20.133415 20.141293 20.141292 20.133415a4.355938 4.355938 0 0 1-6.151877 6.167631L1051.569231 128.236308l-20.141293 20.149169a4.324431 4.324431 0 0 1-6.144 0 4.340185 4.340185 0 0 1 0-6.167631l20.133416-20.133415-20.141292-20.141293a4.348062 4.348062 0 1 1 6.151876-6.144z" fill="#FFFFFF" p-id="5236"></path></svg>