<?xml version="1.0" standalone="no"?><!DOCTYPE svg PUBLIC "-//W3C//DTD SVG 1.1//EN" "http://www.w3.org/Graphics/SVG/1.1/DTD/svg11.dtd"><svg t="1596523913144" class="icon" viewBox="0 0 1429 1024" version="1.1" xmlns="http://www.w3.org/2000/svg" p-id="4938" xmlns:xlink="http://www.w3.org/1999/xlink" width="279.1015625" height="200"><defs><style type="text/css"></style></defs><path d="M298.32322 807.152941H251.720124V890.848297h-72.916409v-83.695356H9.827864v-51.041486L171.829102 507.244582h79.891022v242.526316h46.603096v57.382043z m-119.836533-57.382043v-125.860062c0-10.778947 0.317028-23.143034 0.951084-36.775232h-1.585139c-1.268111 3.170279-2.853251 7.291641-5.072446 12.364086-2.219195 5.389474-5.389474 11.095975-9.510836 17.436533l-86.231579 132.834675h101.448916z" fill="#3E75FC" opacity=".3" p-id="4939"></path><path d="M1227.214861 803.982663h-46.603096V887.678019h-72.916409v-83.695356h-168.658823v-51.041487l162.001238-248.866873h79.891022v242.526316h46.603096v57.382044h-0.317028z m-119.836533-57.382044v-125.860062c0-10.778947 0.317028-23.143034 0.951084-36.775232h-1.58514c-1.268111 3.170279-2.853251 7.291641-5.072445 12.364087-2.219195 5.389474-5.389474 11.095975-9.510836 17.436532l-86.231579 132.834675h101.448916z" fill="#3E75FC" opacity=".3" p-id="4940"></path><path d="M825.857585 803.665635c-1.268111 1.585139-3.170279 2.536223-5.072446 2.536223-1.268111 0-2.536223-0.317028-3.487306-1.268112l-20.923839-15.217337-1.268112-0.951084c-1.585139-0.951084-3.487307-1.585139-5.389473-1.585139-3.170279 0-6.340557 1.585139-8.559753 4.43839-3.487307 4.755418-2.219195 11.095975 2.219195 14.583282l0.951084 0.634055 32.019814 23.143034c7.291641 5.389474 8.87678 15.534365 3.804335 22.826007l-0.634056 0.951083c-5.389474 7.291641-15.534365 8.87678-22.826006 3.804335l-35.507121-25.679257c-32.970898 28.849536-75.452632 46.286068-122.372755 46.286068-101.765944 0-184.193189-82.427245-184.193189-183.876161 0-25.679257 5.389474-50.40743 14.900309-72.599381l-27.264396-19.655728c-7.291641-5.389474-8.87678-15.534365-3.804334-22.826006l0.634055-0.951083c5.389474-7.291641 15.534365-8.87678 22.826007-3.804335l23.777089 17.119505 3.487307 2.536223c1.902167 1.268111 4.121362 1.902167 6.023529 1.902167 3.170279 0 6.340557-1.585139 8.559753-4.43839 3.487307-4.43839 2.536223-11.095975-2.219196-14.583282l-3.170278-2.536223-12.998143-9.510836s-0.317028 0-0.317027-0.317028c-2.536223-2.219195-3.170279-6.023529-1.268112-8.559752 1.268111-1.585139 3.170279-2.536223 5.072446-2.536223 1.268111 0 2.536223 0.317028 3.804334 1.268112l14.266254 10.144891c33.287926-33.921981 79.891022-55.162848 131.249536-55.162848 101.765944 0 183.876161 82.427245 183.876161 183.876161 0 30.434675-7.291641 59.284211-20.606811 84.64644l22.19195 16.168421c3.804334 2.219195 4.43839 6.340557 2.219195 9.193808M717.117028 887.043963h-220.334365c-2.536223 0-4.43839-1.902167-4.438391-4.43839 0-2.536223 1.902167-4.43839 4.438391-4.43839h220.334365c2.536223 0 4.43839 1.902167 4.43839 4.43839s-1.902167 4.43839-4.43839 4.43839M740.894118 887.043963h-4.121363c-2.536223 0-4.43839-1.902167-4.43839-4.43839 0-2.536223 1.902167-4.43839 4.43839-4.43839h4.121363c2.536223 0 4.43839 1.902167 4.43839 4.43839s-1.902167 4.43839-4.43839 4.43839M671.147988 910.186997h-146.783901c-2.219195 0-4.121362-1.902167-4.121363-4.121362v-0.634056c0-2.219195 1.902167-4.121362 4.121363-4.121362h146.466873c2.219195 0 4.121362 1.902167 4.121362 4.121362v0.634056c0.317028 2.219195-1.585139 4.121362-3.804334 4.121362M585.233437 933.339542h-146.783901c-2.219195 0-4.121362-1.902167-4.121363-4.121362v-0.634056c0-2.219195 1.902167-4.121362 4.121363-4.121362h146.466873c2.219195 0 4.121362 1.902167 4.121362 4.121362v0.634056c0.317028 2.219195-1.585139 4.121362-3.804334 4.121362M793.837771 933.330031h-176.267492c-2.536223 0-4.43839-1.902167-4.43839-4.43839 0-2.536223 1.902167-4.43839 4.43839-4.43839h176.267492c2.536223 0 4.43839 1.902167 4.43839 4.43839 0 2.536223-1.902167 4.43839-4.43839 4.43839M692.388854 910.186997h-4.121362c-2.536223 0-4.43839-1.902167-4.43839-4.43839 0-2.536223 1.902167-4.43839 4.43839-4.43839h4.121362c2.536223 0 4.43839 1.902167 4.438391 4.43839 0 2.219195-1.902167 4.43839-4.438391 4.43839M449.228483 824.272446c-4.755418 0-8.559752 3.804334-8.559752 8.559752s3.804334 8.559752 8.559752 8.559752 8.559752-3.804334 8.559752-8.559752-3.804334-8.559752-8.559752-8.559752m0 23.460062c-8.242724 0-14.90031-6.657585-14.90031-14.90031s6.657585-14.90031 14.90031-14.900309 14.90031 6.657585 14.90031 14.900309-6.657585 14.90031-14.90031 14.90031M684.14613 450.189077c-4.755418 0-8.87678 3.804334-8.87678 8.559753s4.121362 8.559752 8.87678 8.559752 8.559752-3.804334 8.559752-8.559752-3.804334-8.559752-8.559752-8.559753m0 23.460062c-8.242724 0-15.217337-6.657585-15.217337-14.900309s6.657585-14.90031 14.900309-14.90031 14.90031 6.657585 14.90031 14.90031c0.317028 8.242724-6.340557 14.90031-14.583282 14.900309" fill="#3E75FC" opacity=".298" p-id="4941"></path><path d="M719.970279 769.743653c-4.755418 0-8.559752 3.804334-8.559753 8.559753s3.804334 8.559752 8.559753 8.559752 8.559752-3.804334 8.559752-8.559752-3.804334-8.559752-8.559752-8.559753m0 23.77709c-8.242724 0-14.90031-6.657585-14.90031-14.90031s6.657585-14.90031 14.90031-14.900309 14.90031 6.657585 14.900309 14.900309c0 7.925697-6.657585 14.90031-14.900309 14.90031" fill="#FFFFFF" opacity=".298" p-id="4942"></path><path d="M473.322601 544.336842c0 3.487307-2.853251 6.340557-6.340558 6.340557s-6.340557-2.853251-6.340557-6.340557 2.853251-6.340557 6.340557-6.340557 6.340557 2.853251 6.340558 6.340557M644.200619 475.224768h-12.681114c-0.951084 0-1.585139-0.634056-1.58514-1.58514s0.634056-1.585139 1.58514-1.585139h12.681114c0.951084 0 1.585139 0.634056 1.58514 1.585139s-0.634056 1.585139-1.58514 1.58514" fill="#3E75FC" opacity=".298" p-id="4943"></path><path d="M636.274923 479.980186v-12.681115c0-0.951084 0.634056-1.585139 1.585139-1.585139s1.585139 0.634056 1.585139 1.585139v12.681115c0 0.951084-0.634056 1.585139-1.585139 1.585139-0.634056 0-1.585139-0.634056-1.585139-1.585139" fill="#3E75FC" opacity=".298" p-id="4944"></path><path d="M711.410526 563.358514l-12.364086-2.219195c-0.951084-0.317028-1.268111-0.951084-1.268112-1.902167 0.317028-0.951084 0.951084-1.268111 1.902167-1.268112l12.364087 2.219195c0.951084 0.317028 1.268111 0.951084 1.268111 1.902167s-0.951084 1.585139-1.902167 1.268112" fill="#FFFFFF" opacity=".298" p-id="4945"></path><path d="M702.850774 566.84582l2.219195-12.364086c0.317028-0.951084 0.951084-1.268111 1.902167-1.268112 0.951084 0.317028 1.268111 0.951084 1.268112 1.902167l-2.219195 12.364087c-0.317028 0.951084-0.951084 1.268111-1.902168 1.268112-0.951084-0.317028-1.268111-1.268111-1.268111-1.902168M601.401858 820.151084h-10.46192c-0.634056 0-1.268111-0.634056-1.268111-1.268112s0.634056-1.268111 1.268111-1.268111h10.46192c0.634056 0 1.268111 0.634056 1.268111 1.268111s-0.634056 1.268111-1.268111 1.268112" fill="#FFFFFF" opacity=".298" p-id="4946"></path><path d="M594.744272 824.272446v-10.46192c0-0.634056 0.634056-1.268111 1.268112-1.268111s1.268111 0.634056 1.268111 1.268111v10.46192c0 0.634056-0.634056 1.268111-1.268111 1.268111s-1.268111-0.634056-1.268112-1.268111M674.952322 579.843963l-9.827864-4.121362c-0.634056-0.317028-0.951084-0.951084-0.634056-1.58514 0.317028-0.634056 0.951084-0.951084 1.58514-0.634055l9.827864 4.121362c0.634056 0.317028 0.951084 0.951084 0.634055 1.585139 0 0.634056-0.951084 0.951084-1.585139 0.634056" fill="#FFFFFF" opacity=".298" p-id="4947"></path><path d="M667.343653 580.795046l4.121362-9.827863c0.317028-0.634056 0.951084-0.951084 1.58514-0.634056s0.951084 0.951084 0.634056 1.585139l-4.121363 9.827864c-0.317028 0.634056-0.951084 0.951084-1.585139 0.634056-0.634056-0.317028-0.951084-0.951084-0.634056-1.58514" fill="#FFFFFF" opacity=".298" p-id="4948"></path><path d="M691.120743 668.928793c0 19.655728-31.068731 12.998142-43.749845 25.996284-13.31517 13.949226-8.559752 46.920124-29.166564 46.920124-43.115789 0-77.354799-37.09226-72.59938-81.159133 3.804334-33.287926 30.751703-60.552322 64.039628-64.039628 44.383901-5.072446 81.476161 29.166563 81.476161 72.282353" fill="#FFFFFF" opacity=".298" p-id="4949"></path><path d="M763.403096 389.310217l-2.536223-1.902167s1.268111-1.902167 3.804334-5.072446l2.536223 1.902167c-2.536223 3.170279-3.804334 5.072446-3.804334 5.072446z m7.608669-10.144892l-2.536223-1.902167c1.268111-1.585139 2.536223-3.170279 3.804334-5.072446l2.536223 1.902167c-1.268111 1.902167-2.536223 3.487307-3.804334 5.072446z m7.925696-10.144892l-2.536223-1.902167c1.268111-1.585139 2.536223-3.170279 4.121363-5.072446l2.536223 1.902168c-1.585139 1.902167-2.853251 3.804334-4.121363 5.072445z m7.925697-9.510835l-2.536223-1.902168c1.268111-1.585139 2.536223-3.170279 4.121362-4.755418l2.536223 1.902168c-1.268111 1.585139-2.853251 3.170279-4.121362 4.755418z m8.242724-9.827864l-2.536223-2.219195c1.268111-1.585139 2.853251-3.170279 4.121363-4.755418l2.536223 2.219195c-1.268111 1.585139-2.853251 3.170279-4.121363 4.755418z m8.559753-9.510836l-2.219195-2.219195c1.268111-1.585139 2.853251-3.170279 4.121362-4.755418l2.219195 2.219195c-1.585139 1.585139-2.853251 3.170279-4.121362 4.755418z m8.242724-9.510836l-2.219195-2.219195c1.268111-1.585139 2.853251-3.170279 4.43839-4.755418l2.219195 2.219195c-1.585139 1.902167-2.853251 3.487307-4.43839 4.755418z m8.87678-9.193808l-2.219195-2.219195c1.585139-1.585139 2.853251-3.170279 4.43839-4.43839l2.219195 2.219195-4.43839 4.43839z m8.559753-8.87678l-2.219195-2.219195 4.43839-4.43839 2.219195 2.219195-4.43839 4.43839z m9.193808-9.193808l-2.219195-2.219195c1.585139-1.585139 3.170279-2.853251 4.43839-4.438391l2.219195 2.219196-4.43839 4.43839z m8.87678-8.876781l-2.219195-2.219195c1.585139-1.585139 3.170279-2.853251 4.755418-4.43839l2.219195 2.219195c-1.585139 1.585139-3.170279 3.170279-4.755418 4.43839z m9.193808-8.559752l-2.219195-2.219195c1.585139-1.585139 3.170279-2.853251 4.755418-4.43839l2.219195 2.219195c-1.585139 1.585139-3.170279 3.170279-4.755418 4.43839z m9.510836-8.559752l-2.219195-2.219195c1.585139-1.268111 3.170279-2.853251 4.755418-4.121362l2.219195 2.536222c-1.585139 0.951084-3.170279 2.536223-4.755418 3.804335z m361.728792-1.58514l-1.268111-2.85325c1.902167-0.634056 3.804334-1.585139 5.706502-2.219195l1.268111 2.85325c-1.902167 0.634056-3.804334 1.585139-5.706502 2.219195z m11.730031-5.072445l-1.268111-2.853251 5.706501-2.853251 1.58514 2.853251c-2.219195 0.951084-4.121362 1.902167-6.02353 2.853251z m-363.947987-1.58514l-2.219195-2.536223c1.585139-1.268111 3.170279-2.853251 4.755418-4.121362l1.902167 2.536223c-1.268111 1.268111-2.853251 2.853251-4.43839 4.121362z m375.043963-4.43839l-1.58514-2.853251c1.902167-0.951084 3.487307-2.219195 5.389474-3.487306l1.902167 2.536223-5.706501 3.804334z m-365.216099-3.804334l-1.902168-2.536223c1.585139-1.268111 3.170279-2.853251 4.755418-4.121362l1.902167 2.536223c-1.585139 1.585139-3.170279 2.853251-4.755417 4.121362z m375.995046-3.487307l-1.902167-2.536223c1.585139-1.268111 3.487307-2.536223 5.072446-3.804334l1.902167 2.536223c-1.585139 1.268111-3.487307 2.536223-5.072446 3.804334z m-366.484211-4.43839l-1.902167-2.536223c1.585139-1.268111 3.170279-2.536223 5.072446-3.804334l1.902167 2.536223c-1.585139 1.268111-3.170279 2.536223-5.072446 3.804334z m376.629103-3.487306l-2.219195-2.536223c1.585139-1.268111 3.170279-2.853251 4.755418-4.121362l2.219195 2.219195c-1.585139 1.585139-3.170279 3.170279-4.755418 4.43839z m-366.484211-4.43839l-1.902167-2.536223c1.585139-1.268111 3.487307-2.536223 5.072446-3.804335l1.902167 2.536223c-1.902167 1.268111-3.487307 2.536223-5.072446 3.804335zM1280.79257 240.941176l-2.219195-2.219195c1.585139-1.585139 2.853251-3.170279 4.43839-4.43839l2.219195 2.219195L1280.79257 240.941176z m-365.533127-3.487306l-1.902167-2.536223c1.585139-1.268111 3.487307-2.536223 5.072445-3.804334l1.902168 2.536223c-1.902167 1.268111-3.487307 2.536223-5.072446 3.804334z m374.092879-6.023529l-2.536223-1.902168c1.268111-1.585139 2.536223-3.170279 3.804334-5.072445l2.536223 1.902167c-0.951084 1.585139-2.219195 3.170279-3.804334 5.072446z m-363.947988-1.268112l-1.902167-2.536223c1.585139-1.268111 3.487307-2.536223 5.072446-3.487306l1.902167 2.536223c-1.585139 0.951084-3.487307 2.219195-5.072446 3.487306z m10.46192-7.291641l-1.902167-2.536223c1.902167-1.268111 3.487307-2.219195 5.389473-3.487306l1.902168 2.536223c-1.902167 1.268111-3.804334 2.219195-5.389474 3.487306z m361.094737-1.902167l-2.536223-1.585139c1.268111-1.902167 2.219195-3.487307 3.170278-5.389474l2.853251 1.585139c-1.268111 1.585139-2.219195 3.487307-3.487306 5.389474z m-350.632818-5.072446l-1.585139-2.536223c1.902167-1.268111 3.487307-2.219195 5.389474-3.487306l1.585139 2.536223c-1.902167 1.268111-3.487307 2.536223-5.389474 3.487306z m356.656347-6.340557l-2.853251-1.268111c0.951084-1.902167 1.585139-3.804334 2.219195-5.706502l2.853251 0.951084c-0.317028 1.902167-1.268111 4.121362-2.219195 6.023529zM957.107121 209.23839l-1.58514-2.853251c1.902167-0.951084 3.487307-2.219195 5.389474-3.170278l1.585139 2.85325c-1.902167 0.951084-3.487307 1.902167-5.389473 3.170279z m10.778947-6.340557l-1.585139-2.853251c1.902167-0.951084 3.804334-2.219195 5.389473-3.170279l1.58514 2.853251c-1.585139 0.951084-3.487307 1.902167-5.389474 3.170279z m339.536842-5.706502l-3.170278-0.634055c0.634056-1.902167 0.951084-4.121362 0.951083-6.02353l3.170279 0.317028c0 2.219195-0.634056 4.43839-0.951084 6.340557zM978.982043 196.557276l-1.585139-2.853251c1.902167-0.951084 3.804334-1.902167 5.706502-3.170279l1.585139 2.853251c-1.902167 1.268111-3.804334 2.219195-5.706502 3.170279z m11.095976-6.02353l-1.58514-2.853251 5.706502-2.85325 1.268111 2.85325c-1.585139 0.951084-3.487307 1.902167-5.389473 2.853251z m11.413003-5.389474l-1.268112-2.85325 5.706502-2.853251 1.268111 2.853251-5.706501 2.85325z m304.029721-0.634055c0-2.219195-0.317028-4.121362-0.634056-6.02353l3.170279-0.634055c0.317028 2.219195 0.634056 4.43839 0.634056 6.657585h-3.170279z m-292.616718-4.755418l-1.268112-2.853251c1.902167-0.951084 3.804334-1.585139 5.706502-2.536223l1.268111 2.853251c-1.902167 0.951084-3.804334 1.585139-5.706501 2.536223z m11.413003-5.072446l-1.268112-2.853251c1.902167-0.951084 3.804334-1.585139 6.02353-2.219195l1.268111 2.853251c-1.902167 0.634056-3.804334 1.585139-6.023529 2.219195z m278.98452-2.219195c-0.634056-1.902167-1.585139-3.804334-2.536223-5.389474l2.853251-1.585139c1.268111 1.902167 2.219195 3.804334 2.853251 6.023529l-3.170279 0.951084z m-267.254489-2.219195l-1.268112-2.853251c1.902167-0.634056 3.804334-1.585139 6.02353-2.219195l0.951083 2.853251c-1.585139 0.634056-3.487307 1.268111-5.706501 2.219195z m12.047059-4.43839l-0.951084-2.853251c1.902167-0.634056 4.121362-1.268111 6.023529-1.902167l0.951084 3.170278c-2.219195 0.317028-4.121362 0.951084-6.023529 1.58514z m249.183901-3.487307c-1.268111-1.585139-2.853251-2.853251-4.121363-4.43839l2.219195-2.536223 4.755418 4.755418-2.85325 2.219195z m-237.136843-0.317028l-0.951083-3.170278c1.902167-0.634056 4.121362-1.268111 6.023529-1.902167l0.951084 3.170278c-2.219195 0.634056-4.121362 1.268111-6.02353 1.902167z m12.047059-3.487306l-0.951083-3.170279c1.902167-0.634056 4.121362-0.951084 6.023529-1.585139l0.634056 3.170279c-1.585139 0.634056-3.804334 1.268111-5.706502 1.585139z m12.047059-2.853251l-0.634056-3.170279 6.340558-1.268111 0.634055 3.170279-6.340557 1.268111z m203.848917-1.585139c-1.585139-1.268111-3.487307-2.219195-5.389474-3.170279l1.585139-2.853251c1.902167 0.951084 3.804334 2.219195 5.706502 3.487307l-1.902167 2.536223z m-191.48483-1.268112l-0.634056-3.170278c2.219195-0.317028 4.121362-0.951084 6.340557-1.268112l0.634056 3.170279c-1.902167 0.634056-4.121362 0.951084-6.340557 1.268111z m12.681114-2.536223l-0.634055-3.170278c2.219195-0.317028 4.121362-0.951084 6.340557-1.268112l0.634056 3.170279c-2.219195 0.634056-4.43839 0.951084-6.340558 1.268111z m168.024768-2.219195c-1.902167-0.951084-3.804334-1.585139-5.706501-2.219195l0.951083-2.85325c2.219195 0.634056 4.121362 1.585139 6.02353 2.219195l-1.268112 2.85325z m-155.660681 0l-0.634056-3.170278c2.219195-0.317028 4.121362-0.634056 6.340558-1.268112l0.634055 3.170279c-2.219195 0.634056-4.43839 0.951084-6.340557 1.268111z m12.364087-2.219195l-0.634056-3.170278c2.219195-0.317028 4.121362-0.634056 6.340557-0.951084l0.634056 3.170279c-2.219195 0.317028-4.121362 0.634056-6.340557 0.951083z m131.566563-1.902167c-1.902167-0.634056-3.804334-0.951084-6.023529-1.585139l0.634056-3.170279c2.219195 0.634056 4.121362 0.951084 6.340557 1.58514l-0.951084 3.170278z m-118.885449 0l-0.317028-3.170278c2.219195-0.317028 4.121362-0.634056 6.340558-0.951084l0.317028 3.170279c-2.219195 0.317028-4.43839 0.634056-6.340558 0.951083z m12.364087-1.902167l-0.317028-3.170279c2.219195-0.317028 4.121362-0.634056 6.340557-0.634055l0.317028 3.170278c-2.219195 0.317028-4.121362 0.317028-6.340557 0.634056z m94.157276-0.634056c-1.902167-0.317028-4.121362-0.634056-6.340558-0.951083l0.317028-3.170279c2.219195 0.317028 4.43839 0.634056 6.340557 0.951084l-0.317027 3.170278z m-81.476161-0.634055l-0.317028-3.170279c2.219195-0.317028 4.121362-0.317028 6.340557-0.634056l0.317028 3.170279c-2.219195 0-4.43839 0.317028-6.340557 0.634056z m69.112074-1.268112c-1.902167-0.317028-4.121362-0.317028-6.340557-0.634056l0.317027-3.170278c2.219195 0.317028 4.43839 0.317028 6.340558 0.634055l-0.317028 3.170279z m-56.747988 0l-0.317028-3.170279c2.219195-0.317028 4.121362-0.317028 6.340558-0.317027l0.317027 3.170278c-1.902167 0-4.121362 0-6.340557 0.317028z m12.681115-0.951084l-0.317028-3.170278c2.219195 0 4.121362-0.317028 6.340557-0.317028v3.170279c-1.902167 0.317028-3.804334 0.317028-6.023529 0.317027z m31.702786 0c-1.902167 0-4.121362-0.317028-6.340557-0.317027v-3.170279c2.219195 0 4.43839 0 6.340557 0.317028v3.170278z m-19.021672-0.317027v-3.170279h6.340558v3.170279h-6.340558z" fill="#3E75FC" p-id="4950"></path><path d="M1338.174613 0.634056v20.606811L1429.795666 15.217337z" fill="#3E75FC" p-id="4951"></path><path d="M1338.174613 21.240867l-2.853251 11.730031L1429.795666 15.217337z" fill="#91B1FF" p-id="4952"></path><path d="M1356.562229 28.849536v8.87678L1429.795666 15.217337z" fill="#3E75FC" p-id="4953"></path></svg>