<svg t="1605576426019" class="icon" viewBox="0 0 1024 1024" version="1.1" xmlns="http://www.w3.org/2000/svg" p-id="23756" width="200" height="200"><path d="M725.284571 760.783238H309.686857c-11.312762 0-22.576762-8.533333-28.330667-17.017905-5.705143-11.215238-2.730667-22.576762 5.753905-31.061333l212.065524-200.801524L286.915048 299.885714c-8.533333-8.533333-11.264-19.797333-5.705143-31.061333 5.705143-8.533333 16.969143-17.017905 28.281905-17.017905h415.597714c17.017905 0 31.061333 11.264 31.061333 28.281905v73.630476c0 16.969143-14.043429 28.281905-31.061333 28.281905-17.017905 0-31.061333-11.312762-31.061334-28.281905v-45.348571H383.024762l183.783619 181.00419a27.355429 27.355429 0 0 1 0 39.545905l-180.955429 172.519619h308.175238v-25.502476c0-17.017905 14.043429-28.281905 31.061334-28.281905 17.017905 0 31.061333 11.264 31.061333 28.281905v56.563809c0.195048 17.066667-13.848381 28.281905-30.866286 28.281905z m254.585905-497.078857a19.846095 19.846095 0 0 0 19.748572-19.846095V38.180571a19.846095 19.846095 0 0 0-19.748572-19.846095h-205.726476a19.894857 19.894857 0 0 0-19.797333 19.846095v63.292953H269.702095V38.180571a19.846095 19.846095 0 0 0-19.797333-19.846095H44.178286a19.894857 19.894857 0 0 0-19.797334 19.846095v205.677715c0 10.922667 8.923429 19.846095 19.797334 19.846095h63.341714v484.595809H44.178286a19.894857 19.894857 0 0 0-19.797334 19.797334v205.775238c0 10.825143 8.923429 19.69981 19.797334 19.699809h205.726476a19.797333 19.797333 0 0 0 19.797333-19.748571v-62.073905h484.644572v62.073905c0 10.873905 8.923429 19.748571 19.797333 19.748571h205.726476a19.797333 19.797333 0 0 0 19.748572-19.748571v-205.726476a19.846095 19.846095 0 0 0-19.748572-19.797334h-62.122666V263.704381h62.122666z"  p-id="23757"></path></svg>
