<svg t="1598521845971" class="icon" viewBox="0 0 1024 1024" version="1.1" xmlns="http://www.w3.org/2000/svg" p-id="22173" width="200" height="200"><path d="M512 32.674909c269.917091 0 488.727273 219.461818 488.727273 490.216727 0 270.708364-218.810182 490.170182-488.727273 490.170182S23.272727 793.6 23.272727 522.891636C23.272727 252.136727 242.082909 32.674909 512 32.674909z m0 46.685091c-244.224 0-442.181818 198.562909-442.181818 443.531636 0 244.922182 197.957818 443.485091 442.181818 443.485091 215.226182 0 394.519273-154.205091 434.036364-358.446545a93.230545 93.230545 0 0 1-131.490909-85.038546 93.230545 93.230545 0 0 1 131.490909-85.131636c-39.563636-204.194909-218.856727-358.4-434.036364-358.4z m0 373.480727c38.539636 0 69.818182 31.371636 69.818182 70.050909 0 38.632727-31.278545 70.004364-69.818182 70.004364s-69.818182-31.371636-69.818182-70.004364c0-38.679273 31.278545-70.050909 69.818182-70.050909z" p-id="22174"></path></svg>
