<svg t="1601447957056" class="icon" viewBox="0 0 1024 1024" version="1.1" xmlns="http://www.w3.org/2000/svg" p-id="25245" width="200" height="200"><path d="M404.642377 32.475429s35.108571-8.240762 62.415238 41.008761c29.744762 43.398095 46.32381 70.704762 46.32381 70.704762s13.165714 10.727619 35.108571 10.727619h383.122286c4.973714-0.292571 67.437714-2.438095 67.437714 68.266667v709.973333s11.215238 73.630476-59.489524 73.630477H92.566187s-68.266667 10.727619-68.266667-78.994286L24.348282 110.201905C24.835901 99.815619 30.784853 32.475429 108.706377 32.475429z m205.287619 715.337142h-48.274286v216.551619h39.009524v-90.209523c0-20.48-3.413333-50.712381-5.363809-71.192381h0.975238l17.066667 51.2 33.645714 90.697143h24.868571l33.645715-90.697143 17.554285-51.2h0.975238c-1.950476 20.48-5.36381 50.712381-5.363809 71.192381v90.209523h39.497143v-216.502857h-47.786667l-36.08381 101.424762c-4.87619 13.653333-8.289524 27.794286-13.165714 41.935238h-1.462857c-4.388571-14.140952-8.289524-28.281905-13.165714-41.935238l-36.571429-101.424762z m-101.424762 0.048762h-43.398095v216.502857h43.398095v-216.502857z m-171.154285 0H266.158568v216.502857h77.043809c47.786667 0 83.870476-19.992381 83.870476-63.878095 0-29.257143-17.066667-45.348571-40.472381-50.712381v-1.462857c18.041905-6.826667 29.257143-27.306667 29.257143-46.811428 0-40.472381-33.645714-53.638095-78.506666-53.638096z m0.536381 120.441905c29.744762 0 45.83619 8.777143 45.83619 29.744762 0 22.430476-16.091429 33.158095-45.83619 33.158095h-30.232381v-62.902857h30.232381z m-4.388572-87.283809c25.84381 0 39.009524 7.801905 39.009524 26.819047 0 17.066667-12.190476 28.281905-39.497143 28.281905h-25.35619v-55.100952h25.843809z m-61.927619-203.824762c-29.744762 0-51.687619 21.942857-51.687619 51.687619 0 29.744762 21.942857 51.687619 51.687619 51.687619a51.687619 51.687619 0 0 0 0-103.375238z m505.173333 2.438095H450.966187c-27.306667 0-49.249524 21.942857-49.249524 49.249524s21.942857 48.761905 49.249524 48.761904h325.729523c26.819048 0 48.761905-21.455238 48.761905-48.761904s-21.942857-49.249524-48.761905-49.249524zM271.522377 383.609905c-29.744762 0-51.687619 24.868571-51.687619 51.687619 0 30.232381 21.942857 52.175238 51.687619 52.175238 29.744762 0 51.687619-24.868571 51.687619-52.175238 0-26.819048-21.942857-51.687619-51.687619-51.687619z m505.173333 2.925714H450.966187a48.956952 48.956952 0 1 0 0 98.011429h325.729523a49.005714 49.005714 0 0 0 0-98.011429z" p-id="25246"></path></svg>
