<?xml version="1.0" standalone="no"?><!DOCTYPE svg PUBLIC "-//W3C//DTD SVG 1.1//EN" "http://www.w3.org/Graphics/SVG/1.1/DTD/svg11.dtd"><svg t="1597310565837" class="icon" viewBox="0 0 1024 1024" version="1.1" xmlns="http://www.w3.org/2000/svg" p-id="7623" xmlns:xlink="http://www.w3.org/1999/xlink" width="200" height="200"><defs><style type="text/css"></style></defs><path d="M751.4624 483.1232c133.12 0 241.5616 114.2272 241.5616 254.6176a263.424 263.424 0 0 1-55.7568 162.5088l80.384 84.6848a24.3712 24.3712 0 0 1 6.5024 16.64 23.552 23.552 0 0 1-7.0144 16.0768 21.504 21.504 0 0 1-30.6688-0.2048l-80.3328-84.992a233.2672 233.2672 0 0 1-155.136 59.392c-133.12 0-241.5616-114.2784-241.5616-254.6176 0-140.1344 108.4416-254.1056 242.0224-254.1056z m0 46.1824a189.8496 189.8496 0 0 0-139.776 61.2352 211.456 211.456 0 0 0-58.0096 147.2 211.2 211.2 0 0 0 57.9584 146.944 190.976 190.976 0 0 0 139.8272 60.928h0.768c51.712 0 102.1952-21.8624 138.8544-60.416a212.9408 212.9408 0 0 0 58.0096-147.2c0.256-55.1424-20.8384-109.0048-58.0096-147.456-37.632-39.936-87.1424-61.2352-139.6224-61.2352zM786.432 0c41.984 0 76.288 35.584 76.288 79.7696V451.072a264.96 264.96 0 0 0-93.696-23.7568V107.776h-665.6V808.448h360.96c8.704 35.584 23.04 68.4544 41.984 97.5872h-430.08C34.304 905.984 0 870.4 0 826.2144V79.7184C0 35.6352 34.304 0 76.288 0h710.144z m-68.608 161.6896v266.24c-147.456 16.1792-262.144 147.1488-262.144 306.1248 0 7.0144 0 14.0288 1.024 20.48h-302.08V161.6384h563.2z" p-id="7624"></path></svg>