<svg t="1598511535188" class="icon" viewBox="0 0 1024 1024" version="1.1" xmlns="http://www.w3.org/2000/svg" p-id="22048" width="200" height="200"><path d="M204.8 0a51.2 51.2 0 0 1 51.2 51.2v51.2h512V51.2a51.2 51.2 0 0 1 51.2-51.2h153.6a51.2 51.2 0 0 1 51.2 51.2v153.6a51.2 51.2 0 0 1-51.2 51.2h-51.2v512h51.2a51.2 51.2 0 0 1 51.2 51.2v153.6a51.2 51.2 0 0 1-51.2 51.2h-153.6a51.2 51.2 0 0 1-51.2-51.2v-51.2H256v51.2a51.2 51.2 0 0 1-51.2 51.2H51.2a51.2 51.2 0 0 1-51.2-51.2v-153.6a51.2 51.2 0 0 1 51.2-51.2h51.2V256H51.2a51.2 51.2 0 0 1-51.2-51.2V51.2A51.2 51.2 0 0 1 51.2 0h153.6z m0 819.2H51.2v153.6h153.6v-153.6z m768 0h-153.6v153.6h153.6v-153.6z m-200.704-594.24l-547.072 547.2A51.2 51.2 0 0 1 256 819.2v51.2h14.976L870.4 270.976V256h-51.2a51.2 51.2 0 0 1-47.104-31.04z m98.304 118.4L343.36 870.4h132.416L870.4 475.776v-132.48z m0 204.8L548.16 870.4h106.816l215.424-215.424v-106.88z m-102.4 281.6l-40.64 40.64H768v-40.64z m102.4-102.4l-40.64 40.64h40.64v-40.64zM768 153.6H624.96L154.88 623.744 153.6 622.4V768h3.072L768 156.608V153.6z m-215.424 0h-132.48L155.008 418.944 153.6 417.6v134.976L552.576 153.6z m-204.8 0H256v51.2a51.2 51.2 0 0 1-51.2 51.2h-51.2v91.776L347.776 153.6zM204.8 51.2H51.2v153.6h153.6V51.2z m768 0h-153.6v153.6h153.6V51.2z" fill="#ffffff" p-id="22049"></path></svg>
