<svg t="1605576340460" class="icon" viewBox="0 0 1024 1024" version="1.1" xmlns="http://www.w3.org/2000/svg" p-id="23630" width="200" height="200"><path d="M580.461714 686.08a34.620952 34.620952 0 0 1 34.620953 34.620952v251.660191a34.620952 34.620952 0 0 1-34.620953 34.669714h-68.266666a34.620952 34.620952 0 0 1-34.620953-34.669714V720.700952a34.620952 34.620952 0 0 1 34.620953-34.620952h68.266666z m366.83581 91.672381a34.620952 34.620952 0 0 1 34.620952 34.669714v159.939048a34.620952 34.620952 0 0 1-34.620952 34.669714h-68.266667a34.620952 34.620952 0 0 1-34.620952-34.669714v-159.939048a34.620952 34.620952 0 0 1 34.620952-34.669714h68.266667z m-183.442286-229.229714a34.620952 34.620952 0 0 1 34.669714 34.669714v389.168762a34.620952 34.620952 0 0 1-34.620952 34.669714h-68.266667a34.620952 34.620952 0 0 1-34.620952-34.669714V583.192381a34.620952 34.620952 0 0 1 34.620952-34.669714h68.266667zM429.689905 31.792762c233.423238 0 423.009524 189.635048 423.009524 423.009524 0 3.900952 0 7.460571-0.487619 11.410285 0 7.94819-0.536381 15.993905-1.024 23.893334v1.462857l-2.974477 24.966095c-0.975238-0.536381-1.999238-0.536381-2.974476-1.024a425.788952 425.788952 0 0 0-92.062476-10.922667h-6.972952c-19.894857 0.438857-39.789714 2.438095-59.196953 5.461334a356.205714 356.205714 0 0 0-80.65219 24.868571 366.201905 366.201905 0 0 0-145.310476 110.982095 376.344381 376.344381 0 0 0-45.251048 71.68 357.571048 357.571048 0 0 0-20.967619 56.222477 361.569524 361.569524 0 0 0-14.872381 98.011428v2.925715a383.512381 383.512381 0 0 1-24.917333-3.413334c-8.43581-1.462857-16.384-3.462095-24.380953-5.461333l-6.436571-1.511619c-5.510095-1.511619-10.971429-2.974476-15.945143-4.437334a370.736762 370.736762 0 0 1-23.893333-7.996952 119.612952 119.612952 0 0 1-18.870858-7.460571 215.966476 215.966476 0 0 1-34.377142-16.432762 506.88 506.88 0 0 1-38.814477-22.918095c-5.461333-3.949714-10.435048-7.460571-15.408762-11.410286A424.472381 424.472381 0 0 1 13.653333 530.968381a433.834667 433.834667 0 0 1-6.972952-76.166095C6.680381 221.379048 196.315429 31.792762 429.689905 31.792762z m0 105.472A317.732571 317.732571 0 0 0 112.152381 454.802286a317.44 317.44 0 0 0 234.349714 306.517333l0.487619-1.462857a405.406476 405.406476 0 0 1 21.504-57.539048 255.122286 255.122286 0 0 1-194.169904-247.515428 255.463619 255.463619 0 0 1 255.317333-255.268572c70.704762 0 134.339048 28.281905 180.614095 74.605715a254.244571 254.244571 0 0 1 74.654476 180.662857l-0.097524 5.363809a390.582857 390.582857 0 0 1 45.348572-4.778666l15.506286-0.585143 1.462857-0.048762-0.195048-11.361524a317.781333 317.781333 0 0 0-317.293714-306.127238z m0 141.360762A176.518095 176.518095 0 0 0 253.561905 454.802286a176.518095 176.518095 0 0 0 148.577524 173.933714l8.728381 1.219048c3.413333-4.973714 7.41181-9.947429 11.410285-14.921143a414.866286 414.866286 0 0 1 164.717715-125.903238c5.510095-2.486857 11.459048-4.973714 16.92038-6.924191 1.219048-8.923429 1.950476-18.090667 1.950477-27.40419a176.518095 176.518095 0 0 0-176.128-176.176762z m0 83.626666c51.248762 0 92.550095 41.252571 92.550095 92.550096a92.355048 92.355048 0 0 1-92.550095 92.550095 92.355048 92.355048 0 0 1-92.501334-92.550095c0-51.297524 41.252571-92.550095 92.501334-92.550096z"  p-id="23631"></path></svg>
