<svg t="1605576280518" class="icon" viewBox="0 0 1024 1024" version="1.1" xmlns="http://www.w3.org/2000/svg" p-id="23504" width="200" height="200"><path d="M598.601143 607.719619a23.893333 23.893333 0 0 1 24.088381 23.79581v304.469333c0 3.657143 2.925714 6.534095 6.436571 6.534095h328.655238a23.893333 23.893333 0 0 1 24.185905 23.552 23.893333 23.893333 0 0 1-24.137143 23.698286h-328.704a54.320762 54.320762 0 0 1-54.662095-53.784381v-304.469333a23.893333 23.893333 0 0 1 24.137143-23.79581z m360.20419 69.144381a23.552 23.552 0 0 1 0 33.499429l-137.947428 135.655619a23.552 23.552 0 0 1-16.920381 6.92419 23.79581 23.79581 0 0 1-16.871619-6.92419l-52.175238-51.102477-48.030477 47.299048a24.380952 24.380952 0 0 1-34.035809 0 23.161905 23.161905 0 0 1-6.972952-16.676571c0-6.485333 2.486857-12.434286 6.972952-16.774096l65.194667-64.170666a24.429714 24.429714 0 0 1 33.987047 0l51.931429 51.102476 120.832-118.832762a24.039619 24.039619 0 0 1 34.035809 0zM430.372571 14.531048c233.71581 0 423.643429 186.855619 423.643429 416.914285l-0.048762 5.607619-0.487619 5.656381c0 7.850667-0.487619 15.701333-0.975238 23.552v1.462857l-2.974476 24.527239c-0.975238-0.487619-1.950476-0.487619-2.974476-0.975239a432.859429 432.859429 0 0 0-92.208762-10.727619h-6.972953c-19.992381 0.487619-39.887238 2.438095-59.294476 5.36381a366.592 366.592 0 0 0-80.798476 24.478476A365.714286 365.714286 0 0 0 461.775238 619.76381a368.835048 368.835048 0 0 0-45.348571 70.704761 350.012952 350.012952 0 0 0-20.967619 55.344762 350.598095 350.598095 0 0 0-14.921143 96.646096v2.925714a378.88 378.88 0 0 1-24.917334-3.413333h-0.048761c-8.484571-1.462857-16.432762-3.413333-24.380953-5.36381-2.048-0.487619-4.486095-0.975238-6.485333-1.560381a342.79619 342.79619 0 0 1-39.887238-12.239238 122.246095 122.246095 0 0 1-18.968381-7.314286 216.795429 216.795429 0 0 1-34.377143-16.237714 511.707429 511.707429 0 0 1-38.863238-22.528c-5.510095-3.900952-10.48381-7.314286-15.457524-11.215238A418.913524 418.913524 0 0 1 32.670476 574.610286a300.422095 300.422095 0 0 1-10.483809-32.426667 291.791238 291.791238 0 0 1-8.484572-35.791238 416.231619 416.231619 0 0 1-6.972952-74.99581c0-230.058667 189.927619-416.914286 423.740952-416.914285z m0 103.960381c-175.494095 0-318.025143 140.288-318.025142 312.953904 0 144.676571 99.669333 266.288762 234.739809 302.08 0-0.195048 0.146286-0.438857 0.292572-0.682666l0.243809-0.780191a402.285714 402.285714 0 0 1 21.504-56.563809c-111.37219-26.526476-194.462476-126.098286-194.462476-244.053334 0-138.825143 114.639238-251.611429 255.658667-251.611428 70.802286 0 134.582857 27.940571 180.955428 73.630476a248.539429 248.539429 0 0 1 74.752 177.980952l-0.097524 5.36381c15.067429-2.535619 29.988571-3.998476 45.348572-4.778667l15.603809-0.585143h1.462857l-0.195047-11.215238C742.15619 252.781714 602.014476 118.491429 430.372571 118.491429z m0 139.312761c-97.231238 0-176.469333 78.019048-176.469333 173.641143 0 89.33181 69.144381 163.303619 157.500952 172.617143 3.510857-4.87619 7.509333-9.752381 11.50781-14.726095a414.72 414.72 0 0 1 164.961524-124.099048c5.461333-2.389333 11.459048-4.87619 16.969143-6.826666 1.219048-8.777143 1.950476-17.798095 1.950476-26.965334 0-95.670857-79.238095-173.592381-176.469333-173.592381z m0 82.40762c51.297524 0 92.696381 40.71619 92.696381 91.233523 0 50.468571-41.398857 91.184762-92.647619 91.184762-51.395048 0-92.793905-40.71619-92.793904-91.184762 0-50.517333 41.447619-91.184762 92.745142-91.184762z"  p-id="23505"></path></svg>
