<svg t="1599110470594" class="icon" viewBox="0 0 1024 1024" version="1.1" xmlns="http://www.w3.org/2000/svg" p-id="22498" width="200" height="200"><path d="M686.811429 647.314286a36.571429 36.571429 0 1 1-51.565715 51.931428l-129.462857-129.462857L376.685714 699.245714a36.571429 36.571429 0 0 1-25.965714 10.605715 36.571429 36.571429 0 0 1-25.965714-62.537143l129.462857-129.097143-129.462857-129.462857a36.571429 36.571429 0 1 1 51.931428-51.565715l129.097143 129.097143 129.462857-129.097143a36.571429 36.571429 0 1 1 51.565715 51.565715l-129.097143 129.462857L686.811429 647.314286zM512 0a512 512 0 1 0 0 1024A512 512 0 0 0 512 0z" fill="#FF554A" p-id="22499"></path></svg>
