<?xml version="1.0" standalone="no"?><!DOCTYPE svg PUBLIC "-//W3C//DTD SVG 1.1//EN" "http://www.w3.org/Graphics/SVG/1.1/DTD/svg11.dtd"><svg t="1597310577513" class="icon" viewBox="0 0 1024 1024" version="1.1" xmlns="http://www.w3.org/2000/svg" p-id="7753" xmlns:xlink="http://www.w3.org/1999/xlink" width="200" height="200"><defs><style type="text/css"></style></defs><path d="M152.673524 537.258667l-74.99581 450.072381h224.987429l75.093333-187.538286 74.99581 187.538286h525.06819l-74.995809-450.072381H152.673524z m375.076571-375.174096a37.546667 37.546667 0 1 1 0.048762-75.142095 37.546667 37.546667 0 0 1 0 75.093334z m465.676191 134.485334a74.849524 74.849524 0 0 0-53.052953-21.942857h-300.080762V124.635429a112.542476 112.542476 0 0 0-225.084952 0v149.991619H115.126857a74.947048 74.947048 0 1 0 0 149.942857h825.246476a74.99581 74.99581 0 0 0 53.004191-128z" p-id="7754"></path></svg>