<svg t="1599015448051" class="icon" viewBox="0 0 1024 1024" version="1.1" xmlns="http://www.w3.org/2000/svg" p-id="22342" width="200" height="200"><path d="M68.242286 0H204.8v68.242286H68.242286V204.8H0V0h68.242286z m0 819.2H0V1024h204.8v-68.242286H68.242286V819.2z m887.515428 136.557714H819.2V1024H1024v-204.8h-68.242286v136.557714zM819.2 0v68.242286h136.484571V204.8H1024V0h-204.8z m-65.024 512a239.177143 239.177143 0 0 1-238.884571 238.957714A239.177143 239.177143 0 0 1 276.406857 512a239.177143 239.177143 0 0 1 238.957714-238.884571A239.177143 239.177143 0 0 1 754.249143 512zM686.08 512a170.861714 170.861714 0 0 0-170.642286-170.642286A170.861714 170.861714 0 0 0 344.649143 512a170.861714 170.861714 0 0 0 170.715428 170.715429A170.861714 170.861714 0 0 0 686.006857 512z" fill="#666666" p-id="22343"></path></svg>
