<svg t="1605576532860" class="icon" viewBox="0 0 1024 1024" version="1.1" xmlns="http://www.w3.org/2000/svg" p-id="24134" width="200" height="200"><path d="M414.524952 549.888a48.761905 48.761905 0 0 1 48.761905 48.810667v341.235809a48.761905 48.761905 0 0 1-48.761905 48.810667H73.240381a48.810667 48.810667 0 0 1-48.810667-48.810667v-341.235809c0-26.965333 21.894095-48.810667 48.810667-48.810667h341.284571z m352.304762 1.560381a206.019048 206.019048 0 0 1 205.580191 205.872762 206.262857 206.262857 0 0 1-47.494095 131.413333l68.412952 68.461714a18.919619 18.919619 0 0 1 5.558857 13.409524 18.383238 18.383238 0 0 1-5.997714 13.019429 18.919619 18.919619 0 0 1-26.087619-0.195048l-68.364191-68.754285a204.458667 204.458667 0 0 1-132.047238 48.079238 206.06781 206.06781 0 0 1-205.58019-205.872762 205.921524 205.921524 0 0 1 206.019047-205.433905z m0 37.302857c-45.29981 0-87.430095 17.505524-118.979047 49.493333a166.716952 166.716952 0 0 0-49.39581 119.076572 166.278095 166.278095 0 0 0 49.347048 118.784 166.66819 166.66819 0 0 0 119.027809 49.249524h0.633905c44.032 0 86.991238-17.65181 118.150095-48.810667a167.399619 167.399619 0 0 0 49.39581-119.02781 167.253333 167.253333 0 0 0-49.39581-119.271619 166.180571 166.180571 0 0 0-118.784-49.493333zM414.524952 13.507048a48.761905 48.761905 0 0 1 48.761905 48.810666v341.23581a48.761905 48.761905 0 0 1-48.761905 48.810666H73.240381A48.810667 48.810667 0 0 1 24.429714 403.553524V62.317714C24.429714 35.352381 46.32381 13.507048 73.240381 13.507048h341.284571z m536.380953 0a48.761905 48.761905 0 0 1 48.761905 48.810666v341.23581a48.761905 48.761905 0 0 1-48.761905 48.810666h-341.284572a48.810667 48.810667 0 0 1-48.810666-48.810666V62.317714c0-26.965333 21.894095-48.810667 48.810666-48.810666h341.284572z"  p-id="24135"></path></svg>
