<?xml version="1.0" standalone="no"?><!DOCTYPE svg PUBLIC "-//W3C//DTD SVG 1.1//EN" "http://www.w3.org/Graphics/SVG/1.1/DTD/svg11.dtd"><svg t="1595782754812" class="icon" viewBox="0 0 1024 1024" version="1.1" xmlns="http://www.w3.org/2000/svg" p-id="6186" xmlns:xlink="http://www.w3.org/1999/xlink" width="200" height="200"><defs><style type="text/css"></style></defs><path d="M1000.08529462 145.41233244l-123.59241341-121.49762706c-18.85308003-18.85308003-50.27487962-18.85308003-69.12796111 0L317.18483913 507.81042733l-2.09478635 4.18957267c-2.09478635 2.09478635-2.09478635 4.18957267-4.18957268 8.37914686l-60.74881428 203.19430625c-4.18957267 12.56871953 0 25.13744054 8.37914684 33.51658737 6.2843605 6.2843605 14.66350735 10.47393318 25.13744055 10.47393319 4.18957267 0 6.2843605 0 10.47393319-2.09478633l203.19430625-60.74881428c4.18957267 0 8.37914686-2.09478635 12.568721-6.28435903l490.18008097-485.99050829c8.37914686-8.37914686 14.66350735-20.94786639 14.66350588-33.5165859 0-12.56871953-6.2843605-25.13744054-14.66350588-33.5165874zM333.94313281 681.67772034l33.51658738-108.92890754 77.5071065 75.41232014-111.02369388 33.5165874z m169.67772033-75.41232015L409.35545297 512l360.30330705-356.11373437 94.26540019 94.26540019-360.30330707 356.11373437z m408.48340032-404.29382762l-94.26540018-94.2654002 23.04265421-23.04265272 94.26540018 94.26540019-23.04265421 23.04265273z m-4.18957267 347.7345875c-12.56871953 0-20.94786639 4.18957267-29.32701323 12.56871955-8.37914686 8.37914686-12.56871953 18.85308003-12.56871953 29.32701321v295.36492158c0 12.56871953-4.18957267 20.94786639-12.56872101 29.32701322-8.37914686 8.37914686-18.85308003 12.56871953-29.32701323 12.56871953H139.12797195c-12.56871953 0-20.94786639-4.18957267-29.32701325-12.56871953-8.37914686-8.37914686-12.56871953-18.85308003-12.56871952-29.32701322V210.35071939c0-12.56871953 4.18957267-20.94786639 12.56871952-29.32701321 8.37914686-8.37914686 18.85308003-12.56871953 29.32701325-12.56871953h299.55449425c12.56871953 0 20.94786639-4.18957267 29.32701321-12.56872102 8.37914686-8.37914686 12.56871953-18.85308003 12.56872103-29.32701321 0-12.56871953-4.18957267-20.94786639-12.56872103-29.32701324-8.37914686-8.37914686-18.85308003-12.56871953-29.32701321-12.56871953H139.12797195c-35.61137374 0-64.93838697 12.56871953-90.07582605 37.70616007-27.23222688 23.04265273-39.80094642 54.46445377-39.8009464 87.98103967v676.61609502c0 35.61137374 12.56871953 64.93838697 37.70616007 90.07582602 25.13744054 25.13744054 54.46445377 37.70616007 90.07582602 37.70616007h682.90045551c35.61137374 0 64.93838697-12.56871953 90.07582601-37.70616007 25.13744054-25.13744054 37.70616007-54.46445377 37.7061601-90.07582602V591.60189283c0-12.56871953-4.18957267-20.94786639-12.56871954-29.32701321-6.2843605-8.37914686-16.7582937-12.56871953-27.23222688-12.56871955z" fill="#ffffff" p-id="6187"></path></svg>