<svg t="1599015416300" class="icon" viewBox="0 0 1024 1024" version="1.1" xmlns="http://www.w3.org/2000/svg" p-id="22217" width="200" height="200"><path d="M30.333767 481.247042c16.811485 0 30.406861 13.595375 30.406861 30.479954h0.43856c9.502144 246.544088 208.535512 444.115588 455.0796 450.401621v0.365467a30.479954 30.479954 0 0 1 19.515942 53.72366 30.991608 30.991608 0 0 1-25.144135 6.578407C235.360795 1013.659475 13.595375 793.648296 0.730934 518.67087a30.041393 30.041393 0 0 1 5.701286-25.655788 31.064701 31.064701 0 0 1 23.828454-11.694946z m775.009476 240.988988l73.093414 73.093415a36.692894 36.692894 0 0 1-25.801975 62.421776 36.254334 36.254334 0 0 1-25.801975-10.744732l-73.093415-73.093414a36.546707 36.546707 0 0 1 51.603951-51.750138z m41.809433-226.004838c0-20.319969 16.299831-36.546707 36.400521-36.546707h103.280994a36.546707 36.546707 0 0 1 0 73.093415h-103.280994a36.546707 36.546707 0 0 1-36.400521-36.546708z m-41.809433-225.931745a36.254334 36.254334 0 0 1-51.603951 0 36.546707 36.546707 0 0 1 0-51.750137l73.093415-73.239602a36.473614 36.473614 0 1 1 51.60395 51.823231l-73.093414 73.093415zM528.465388 176.739877a36.546707 36.546707 0 0 1-36.473614-36.546708V36.546707a36.546707 36.546707 0 1 1 72.947228 0v103.573369a35.96196 35.96196 0 0 1-10.525452 25.728882 37.131455 37.131455 0 0 1-25.948162 10.817825z m-276.877855 93.55957l-73.020321-73.239601a36.546707 36.546707 0 0 1 0-51.750138 36.400521 36.400521 0 0 1 51.530857 0l73.093415 73.239602a36.546707 36.546707 0 0 1-25.801975 62.421776 36.254334 36.254334 0 0 1-25.801976-10.671639z m-63.225803 250.564226c0 1.023308-0.292374 1.973522-0.438561 2.923737h1.754242a340.615312 340.615312 0 0 0 320.587717 310.281545v0.804027a33.330597 33.330597 0 1 1-11.98732 65.345513c-192.601148-15.715084-351.140764-180.102174-376.796553-370.218145a160.805512 160.805512 0 0 1-0.730934-6.066754h1.023308c-0.146187-1.096401-0.292374-2.046616-0.292374-2.99683a33.476784 33.476784 0 1 1 66.807381-0.073093z m121.627442-27.336937a219.280244 219.280244 0 0 0 218.476216 220.011178 219.280244 219.280244 0 0 0 218.54931-220.084272A219.280244 219.280244 0 0 0 528.465388 273.369371c-120.457947 0-218.476216 98.310643-218.476216 220.011178v0.146187z" fill="#666666" p-id="22218"></path></svg>
