<svg t="1601447922262" class="icon" viewBox="0 0 1075 1024" version="1.1" xmlns="http://www.w3.org/2000/svg" p-id="25120" width="200" height="200"><path d="M153.6 153.6h716.8v819.2h155.2384v51.2h-1024v-51.2H153.6V153.6zM102.4 51.2512V768H51.2V51.2512h51.2z m870.4 0V768h-51.2V51.2512h51.2zM1024 0v51.2H0V0h1024zM281.6 716.8h51.2a25.6 25.6 0 0 1 25.6 25.6v204.8a25.6 25.6 0 0 1-25.6 25.6h-51.2a25.6 25.6 0 0 1-25.6-25.6v-204.8a25.6 25.6 0 0 1 25.6-25.6z m204.8-51.2h51.2a25.6 25.6 0 0 1 25.6 25.6v256a25.6 25.6 0 0 1-25.6 25.6h-51.2a25.6 25.6 0 0 1-25.6-25.6v-256a25.6 25.6 0 0 1 25.6-25.6z m204.8-102.4h51.2a25.6 25.6 0 0 1 25.6 25.6v358.4a25.6 25.6 0 0 1-25.6 25.6h-51.2a25.6 25.6 0 0 1-25.6-25.6v-358.4a25.6 25.6 0 0 1 25.6-25.6z" p-id="25121"></path></svg>
