<?xml version="1.0" standalone="no"?><!DOCTYPE svg PUBLIC "-//W3C//DTD SVG 1.1//EN" "http://www.w3.org/Graphics/SVG/1.1/DTD/svg11.dtd"><svg t="1597310556468" class="icon" viewBox="0 0 1024 1024" version="1.1" xmlns="http://www.w3.org/2000/svg" p-id="7493" xmlns:xlink="http://www.w3.org/1999/xlink" width="200" height="200"><defs><style type="text/css"></style></defs><path d="M740.010667 473.624381c126.73219 0 230.058667 108.78781 230.058666 242.492952a250.88 250.88 0 0 1-53.150476 154.770286l76.556191 80.652191a23.064381 23.064381 0 0 1 6.241523 15.847619 22.28419 22.28419 0 0 1-6.729142 15.311238 20.48 20.48 0 0 1-29.159619-0.195048l-76.556191-80.944762a222.256762 222.256762 0 0 1-147.748571 56.56381c-126.780952 0-230.009905-108.836571-230.009905-242.492953 0-133.461333 103.277714-242.005333 230.497524-242.005333z m0 43.983238h-0.487619c-50.224762 0-97.328762 20.577524-132.681143 58.319238a201.48419 201.48419 0 0 0-55.247238 140.190476 201.386667 201.386667 0 0 0 55.247238 139.946667 181.735619 181.735619 0 0 0 133.12 58.026667h0.78019c49.249524 0 97.328762-20.821333 132.144762-57.539048a202.556952 202.556952 0 0 0 55.296-140.190476c0.24381-52.516571-19.797333-103.814095-55.247238-140.434286-35.84-38.034286-82.944-58.319238-132.924952-58.319238zM773.266286 13.507048c39.984762 0 72.655238 33.889524 72.655238 75.971047v353.670095a261.851429 261.851429 0 0 0-109.226667-23.649523c-153.6 0-278.430476 131.413333-278.430476 293.059047 0 61.098667 18.041905 117.028571 48.274286 163.791238h-409.6c-39.984762 0-72.655238-33.889524-72.655238-75.971047V89.429333C24.283429 47.445333 56.953905 13.55581 96.938667 13.55581zM346.112 62.756571L235.910095 190.122667h74.605715v456.801523h70.704761V190.073905h74.605715L346.112 62.805333z m264.289524 254.098286H455.826286v75.971048h154.575238V316.854857z m-374.491429 0H81.334857v75.971048h154.575238V316.854857z" p-id="7494"></path></svg>