<svg t="1605576620701" class="icon" viewBox="0 0 1024 1024" version="1.1" xmlns="http://www.w3.org/2000/svg" p-id="24386" width="200" height="200"><path d="M476.415082 0c61.001085 0 120.246743 11.702846 176.030308 34.523396a449.535572 449.535572 0 0 1 143.749959 94.061624 437.881488 437.881488 0 0 1 96.938574 139.458915c23.551978 54.125663 35.547395 111.615894 35.547395 170.81279a426.032356 426.032356 0 0 1-35.596157 170.861551 434.760729 434.760729 0 0 1-96.889812 139.458915l-0.828952 0.682666 194.559815 213.33313a35.791204 35.791204 0 0 1-3.315807 51.68757 38.229297 38.229297 0 0 1-24.966071 9.118468 38.034249 38.034249 0 0 1-28.281878-12.33675l-195.583814-214.600939a456.898612 456.898612 0 0 1-85.333252 46.128718 462.457464 462.457464 0 0 1-176.030308 34.523396 462.457464 462.457464 0 0 1-176.079071-34.523396 449.535572 449.535572 0 0 1-143.701196-94.061625 437.881488 437.881488 0 0 1-96.938575-139.458914A426.032356 426.032356 0 0 1 24.148846 438.856725c0-59.196896 11.995417-116.687127 35.596156-170.861552a434.760729 434.760729 0 0 1 96.889813-139.458914A452.753855 452.753855 0 0 1 300.336011 34.572158 462.457464 462.457464 0 0 1 476.415082 0z m0 73.142787c-207.725516 0-376.929165 164.132415-376.929165 365.713938s169.203648 365.713937 376.929165 365.713937 376.929165-164.132415 376.929164-365.713937-169.203648-365.713937-376.929164-365.713938zM231.435505 402.285331a37.059012 37.059012 0 0 1 37.692917 36.571394v127.999878a37.059012 37.059012 0 0 1-37.692917 36.571394 37.059012 37.059012 0 0 1-37.692916-36.571394V438.856725a37.059012 37.059012 0 0 1 37.692916-36.571394zM353.925294 219.428362a37.059012 37.059012 0 0 1 37.692916 36.571394v310.856847a37.059012 37.059012 0 0 1-37.692916 36.571394 37.059012 37.059012 0 0 1-37.692917-36.571394V255.999756a37.059012 37.059012 0 0 1 37.692917-36.571394z m122.489788 91.428485a37.059012 37.059012 0 0 1 37.692916 36.571394v219.428362a37.059012 37.059012 0 0 1-37.692916 36.571394 37.059012 37.059012 0 0 1-37.692917-36.571394v-219.428362a37.059012 37.059012 0 0 1 37.692917-36.571394z m122.489788 91.428484a37.059012 37.059012 0 0 1 37.692916 36.571394v127.999878a37.059012 37.059012 0 0 1-37.692916 36.571394 37.059012 37.059012 0 0 1-37.692917-36.571394V438.856725a37.059012 37.059012 0 0 1 37.692917-36.571394z m122.489788 73.142788a37.059012 37.059012 0 0 1 37.692916 36.571393v54.857091a37.059012 37.059012 0 0 1-37.692916 36.571394 37.059012 37.059012 0 0 1-37.692917-36.571394V511.999512a37.059012 37.059012 0 0 1 37.692917-36.571393z"  p-id="24387"></path></svg>
