<?xml version="1.0" standalone="no"?><!DOCTYPE svg PUBLIC "-//W3C//DTD SVG 1.1//EN" "http://www.w3.org/Graphics/SVG/1.1/DTD/svg11.dtd"><svg t="1597310584811" class="icon" viewBox="0 0 1024 1024" version="1.1" xmlns="http://www.w3.org/2000/svg" p-id="7883" xmlns:xlink="http://www.w3.org/1999/xlink" width="200" height="200"><defs><style type="text/css"></style></defs><path d="M501.126095 832.219429c-177.493333 0-321.340952-143.847619-321.340952-320.853334a321.340952 321.340952 0 0 1 321.340952-321.340952c87.28381 0 166.765714 35.108571 224.304762 92.16l49.737143-46.32381 19.017143 182.369524-187.245714-26.331428 53.150476-49.737143a230.497524 230.497524 0 0 0-389.12 167.253333c0 127.268571 103.375238 230.15619 230.643809 230.156191 103.375238 0 190.659048-67.779048 219.916191-161.401905l86.79619 26.331428a320.707048 320.707048 0 0 1-307.2 227.718096m-6.826666-808.472381c-269.653333 0-487.619048 217.965714-487.619048 487.619047 0 269.165714 217.965714 487.619048 487.619048 487.619048 269.165714 0 487.619048-218.453333 487.619047-487.619048 0-269.653333-218.453333-487.619048-487.619047-487.619047" p-id="7884"></path></svg>