<svg t="1601448210541" class="icon" viewBox="0 0 1024 1024" version="1.1" xmlns="http://www.w3.org/2000/svg" p-id="25370" width="200" height="200"><path d="M512 0c282.7776 0 512 229.2224 512 512s-229.2224 512-512 512S0 794.7776 0 512 229.2224 0 512 0z m0.8192 808.2944a28.9792 28.9792 0 0 0-28.7744 28.8768v20.1728a29.0304 29.0304 0 0 0 57.9584 0v-20.1728a28.9792 28.9792 0 0 0-29.184-28.8768z m-137.2672-60.4672a29.5424 29.5424 0 0 0-39.936 10.5984l-21.4016 37.4784a28.4672 28.4672 0 0 0 10.6496 39.5264 28.672 28.672 0 0 0 39.5264-10.6496l21.504-37.4784a28.928 28.928 0 0 0-10.3424-39.4752z m336.128 48.1792a29.1328 29.1328 0 0 0-39.5264-10.496 28.3648 28.3648 0 0 0-10.1376 39.2704 28.3648 28.3648 0 0 0 39.1168 10.5472 28.416 28.416 0 0 0 10.5472-39.3216z m-417.28-160.3584a29.0816 29.0816 0 0 0-39.5264-10.6496l-57.5488 33.3312a28.672 28.672 0 0 0-10.3424 39.5264c7.5776 13.6704 25.5488 18.432 39.5264 10.6496l57.2416-33.3312a29.3376 29.3376 0 0 0 10.6496-39.5264z m-39.424-155.136H165.3248a28.7744 28.7744 0 0 0-28.7744 29.0304c0 15.7696 12.7488 28.7232 28.7744 28.7232h89.6a28.7744 28.7744 0 0 0 28.8256-28.928 28.7744 28.7744 0 0 0-28.7744-28.7744z m605.6448 0h-135.8848a29.0304 29.0304 0 0 0-28.8768 28.8256c0 15.9744 13.2096 28.928 28.8768 28.928h135.8848a28.672 28.672 0 0 0 28.7744-28.7232 28.5184 28.5184 0 0 0-28.7744-28.9792z m-60.7232-170.0864l-118.016 67.9936a28.9792 28.9792 0 0 0-10.6496 39.5264c8.192 13.568 25.9584 18.1248 39.5264 10.5472L828.928 360.448a28.5696 28.5696 0 0 0 10.3424-39.3216 28.4672 28.4672 0 0 0-39.3216-10.752z m-573.2864 0a28.5696 28.5696 0 0 0-39.5264 10.6496 28.2624 28.2624 0 0 0 10.3424 39.3216L295.2704 416.768c13.5168 7.7824 31.232 3.328 39.424-10.6496a28.7744 28.7744 0 0 0-10.6496-39.1168z m474.624-127.232a28.928 28.928 0 0 0-39.5264 10.6496L593.92 311.4496a29.3888 29.3888 0 0 0 10.496 39.7312c13.824 7.9872 31.8464 3.1232 39.5264-10.6496l67.9936-117.8112a28.4672 28.4672 0 0 0-10.6496-39.5264z m-376.4736 0.1024a28.7232 28.7232 0 0 0-10.5472 39.3216l67.8912 117.8112c8.192 13.824 25.9584 18.7392 39.7312 10.5472a28.8256 28.8256 0 0 0 10.3424-39.5264L363.8784 193.8432a28.672 28.672 0 0 0-39.1168-10.5472z m188.0576-50.5344a29.2352 29.2352 0 0 0-28.7744 28.9792V297.472c0 16.384 13.056 29.184 28.7744 29.184a29.3376 29.3376 0 0 0 29.184-29.184V161.7408a29.184 29.184 0 0 0-29.184-28.9792z" p-id="25371"></path></svg>
