<?xml version="1.0" standalone="no"?><!DOCTYPE svg PUBLIC "-//W3C//DTD SVG 1.1//EN" "http://www.w3.org/Graphics/SVG/1.1/DTD/svg11.dtd"><svg t="1608188051222" class="icon" viewBox="0 0 1084 1024" version="1.1" xmlns="http://www.w3.org/2000/svg" p-id="11891" xmlns:xlink="http://www.w3.org/1999/xlink" width="211.71875" height="200"><defs><style type="text/css"></style></defs><path d="M1034.842353 344.967529v323.945412a177.332706 177.332706 0 0 0-62.704941-15.661176l-11.264-0.361412-9.637647 0.301176C927.503059 588.498824 863.593412 542.117647 788.359529 542.117647c-71.920941 0-133.541647 42.465882-159.382588 102.761412l-3.312941 8.432941-9.758118-0.361412c-95.232 0-172.453647 74.511059-172.453647 166.309647 0 88.847059 26.202353 166.309647 111.073883 166.309647h-455.981177A98.544941 98.544941 0 0 1 0 886.964706V344.967529h1034.842353zM295.996235 0c41.803294 0 81.618824 17.709176 109.628236 48.670118l43.12847 47.706353a147.817412 147.817412 0 0 0 109.628235 48.670117h377.856c54.452706 0 98.605176 44.092235 98.605177 98.544941v52.043295H0V98.544941C0 44.152471 44.152471 0 98.544941 0h197.451294z m492.42353 591.329882c64.451765 0 119.265882 41.261176 139.504941 98.785883l8.31247-0.240941a147.817412 147.817412 0 0 1 8.673883 295.393882l-8.673883 0.240941h-295.634823a147.817412 147.817412 0 0 1 0-295.634823l8.372706 0.240941a147.817412 147.817412 0 0 1 139.444706-98.785883z m12.047059 122.639059a10.661647 10.661647 0 0 0-14.516706 1.445647l-109.146353 119.085177-1.445647 1.987764a13.251765 13.251765 0 0 0 1.445647 15.600942l1.385411 1.204705c1.867294 1.566118 4.216471 2.409412 6.625883 2.409412h73.005176V951.717647c0 6.625882 5.421176 11.986824 12.047059 11.986824h48.188235a12.047059 12.047059 0 0 0 12.107295-12.047059v-95.894588h73.005176l2.048-0.180706c5.300706-1.084235 9.336471-6.144 9.336471-12.227765a13.010824 13.010824 0 0 0-3.373177-8.794353l-109.146353-119.085176-1.566117-1.445648z" p-id="11892"></path></svg>