<?xml version="1.0" standalone="no"?><!DOCTYPE svg PUBLIC "-//W3C//DTD SVG 1.1//EN" "http://www.w3.org/Graphics/SVG/1.1/DTD/svg11.dtd"><svg t="1600764530057" class="icon" viewBox="0 0 1024 1024" version="1.1" xmlns="http://www.w3.org/2000/svg" p-id="10876" xmlns:xlink="http://www.w3.org/1999/xlink" width="200" height="200"><defs><style type="text/css"></style></defs><path d="M363.23 275.453h497.824a43.35 43.35 0 1 0 0-86.7H363.23a43.35 43.35 0 0 0 0 86.7zM861.054 471.93H363.23a43.35 43.35 0 0 0 0 86.7h497.824a43.35 43.35 0 0 0 0-86.7z m0 283.17H363.23a43.35 43.35 0 0 0 0 86.7h497.824a43.35 43.35 0 1 0 0-86.7zM125.123 232.103a76.585 76.585 0 1 0 153.17 0 76.585 76.585 0 1 0-153.17 0zM125.123 513.879a76.585 76.585 0 1 0 153.17 0 76.585 76.585 0 1 0-153.17 0zM125.123 795.654a76.585 76.585 0 1 0 153.17 0 76.585 76.585 0 1 0-153.17 0z" p-id="10877"></path></svg>
