<svg t="1602643185345" class="icon" viewBox="0 0 1024 1024" version="1.1" xmlns="http://www.w3.org/2000/svg" p-id="23287" width="200" height="200"><path d="M512 0l512 223.800889v576.398222L512 1024l-512-223.800889V223.800889L512 0zM75.320889 303.729778v449.422222L512 944.128v-449.422222L75.320889 303.672889z m683.747555 155.761778l-9.614222 3.811555-90.055111 37.262222 0.568889 333.255111 93.639111-38.684444c96.711111-40.106667 158.72-121.628444 158.549333-233.813333-0.227556-108.942222-58.481778-137.671111-153.088-101.831111z m-572.302222-2.161778c29.127111-13.767111 61.44-17.066667 101.034667-2.275556 65.024 24.234667 109.169778 71.509333 109.169778 127.317334 0 35.157333-20.48 53.020444-56.433778 53.248v2.218666c38.229333 24.348444 67.299556 62.464 67.356444 105.073778 0 59.790222-54.158222 74.353778-118.328889 50.403556a231.537778 231.537778 0 0 1-112.753777-87.381334l31.402666-29.184c19.968 26.396444 44.544 50.062222 75.036445 61.44 34.133333 12.743111 57.287111 5.12 57.287111-23.893333 0-32.085333-19.512889-59.164444-92.728889-86.471111v-46.648889c61.838222 23.096889 81.806222 9.898667 81.806222-19.114667 0-25.486222-16.327111-46.535111-44.999111-57.685333-24.120889-8.533333-43.690667-4.835556-63.715555 5.233778z m558.762667 60.757333c61.269333-25.372444 99.441778-10.524444 99.555555 70.997333 0.170667 81.066667-37.888 130.218667-99.157333 155.534223l-20.366222 8.476444-0.398222-226.531555zM512 79.928889L129.080889 247.296 512 414.72l382.919111-167.424L512 79.928889z m5.233778 67.811555c26.737778 0 48.867556 4.892444 65.592889 15.132445 17.408 10.581333 26.282667 25.088 26.282666 42.439111 0 12.743111-5.233778 25.088-15.36 36.920889-8.078222 9.443556-21.617778 20.48-40.789333 33.450667l-10.069333 6.656-19.740445 12.515555h83.683556v45.909333H416.711111v-37.774222l84.935111-55.352889c15.36-10.353778 25.656889-18.488889 30.606222-24.064a24.234667 24.234667 0 0 0 7.111112-16.156444c0-5.461333-1.820444-8.704-5.233778-10.865778-4.096-2.503111-11.093333-3.982222-21.845334-3.982222-14.506667 0-28.672 3.356444-42.666666 10.467555l-8.476445 4.664889-31.687111 19.342223V168.903111l15.928889-7.452444c21.219556-9.102222 45.283556-13.653333 71.850667-13.653334z" fill="#666666" p-id="23288"></path></svg>
