<svg t="1599015380870" class="icon" viewBox="0 0 1024 1024" version="1.1" xmlns="http://www.w3.org/2000/svg" p-id="22092" width="200" height="200"><path d="M670.449867 889.898912A160.643451 160.643451 0 0 1 512.219358 1024a160.643451 160.643451 0 0 1-158.157389-134.101088h316.387898z m-158.230509-682.204551a323.261128 323.261128 0 0 1 160.424093 603.96673v26.030528H351.868385v-26.030528a323.261128 323.261128 0 0 1 160.350973-603.96673z m0 52.499771a271.126954 271.126954 0 0 0-122.401974 512.859885l11.625994 5.995796h221.551961l11.699113-5.995796a271.126954 271.126954 0 0 0-122.475094-512.859885zM128.122841 464.416781a26.103647 26.103647 0 0 1 0 52.134174H48.203272a26.103647 26.103647 0 0 1 0-52.134174h79.846449z m848.258843 0a26.103647 26.103647 0 1 1 0 52.134174h-79.84645a26.103647 26.103647 0 1 1 0-52.134174h79.84645zM202.48533 142.764281l56.521342 56.521342a26.103647 26.103647 0 0 1-17.914267 45.480303 26.103647 26.103647 0 0 1-18.279865-7.677543l-56.594461-56.521342a26.176766 26.176766 0 0 1 36.267251-37.80276z m644.913628-7.311946a26.103647 26.103647 0 0 1 11.479755 44.237273l-56.521342 56.521342a26.103647 26.103647 0 0 1-19.011059 8.554976 26.103647 26.103647 0 0 1-18.279865-44.383511l56.886939-57.618134a26.103647 26.103647 0 0 1 25.518692-7.311946zM525.380861 3.837309c8.04314 4.606526 13.015264 13.234622 13.015264 22.593913v79.846449a26.103647 26.103647 0 1 1-52.134175 0V26.431222a26.103647 26.103647 0 0 1 39.118911-22.667032z" fill="#3E75FC" p-id="22093"></path></svg>
