<?xml version="1.0" standalone="no"?><!DOCTYPE svg PUBLIC "-//W3C//DTD SVG 1.1//EN" "http://www.w3.org/Graphics/SVG/1.1/DTD/svg11.dtd"><svg t="1597310511373" class="icon" viewBox="0 0 1125 1024" version="1.1" xmlns="http://www.w3.org/2000/svg" p-id="6843" xmlns:xlink="http://www.w3.org/1999/xlink" width="219.7265625" height="200"><defs><style type="text/css"></style></defs><path d="M170.317128 130.347874a441.24828 441.24828 0 0 1 625.07614-1.125895l1.125895 1.125895a440.736509 440.736509 0 0 1 129.682572 314.43162c0 96.724571-31.627399 190.071458-88.843309 266.529928a48.61817 48.61817 0 0 1 4.708286 3.735923l240.89024 214.738782a48.874056 48.874056 0 0 1 3.940631 69.088979l-7.369491 8.290677a48.97641 48.97641 0 0 1-69.088979 3.991808l-240.941417-214.789959a49.027587 49.027587 0 0 1-6.806544-7.420668 441.708873 441.708873 0 0 1-279.017122 98.362235 442.425351 442.425351 0 0 1-313.356902-129.733749A439.764146 439.764146 0 0 1 40.634555 444.216547a443.704777 443.704777 0 0 1 129.682573-313.868673z m632.701517 278.402997a34.54449 34.54449 0 0 0-34.339782 34.390958 306.908598 306.908598 0 0 1-306.806244 307.369192 34.493313 34.493313 0 0 0-34.288604 34.288604c0 19.089029 15.762523 34.390958 34.288604 34.390958a374.820506 374.820506 0 0 0 265.404034-109.570003 377.788773 377.788773 0 0 0 110.081773-266.478751 34.54449 34.54449 0 0 0-34.339781-34.339781zM346.877852 120.573063a33.725657 33.725657 0 0 0-45.18931-16.376647 378.658782 378.658782 0 0 0-183.67433 190.224989 34.646844 34.646844 0 0 0 18.526081 45.240487c4.350047 1.637665 8.700094 3.224152 13.050141 3.224152a33.418595 33.418595 0 0 0 31.064452-21.238464 313.715142 313.715142 0 0 1 149.897496-155.83403 33.623303 33.623303 0 0 0 16.32547-45.240487z" p-id="6844"></path></svg>