<?xml version="1.0" standalone="no"?><!DOCTYPE svg PUBLIC "-//W3C//DTD SVG 1.1//EN" "http://www.w3.org/Graphics/SVG/1.1/DTD/svg11.dtd"><svg t="1597310516603" class="icon" viewBox="0 0 1024 1024" version="1.1" xmlns="http://www.w3.org/2000/svg" p-id="6973" xmlns:xlink="http://www.w3.org/1999/xlink" width="200" height="200"><defs><style type="text/css"></style></defs><path d="M696.417524 13.507048l285.500952 285.549714v404.187428l-285.500952 285.500953H292.230095L6.680381 703.24419v-404.23619L292.230095 13.55581h404.236191z m-19.260953 46.421333h-365.714285L53.150476 318.268952v365.714286l258.29181 258.340572h365.714285l258.29181-258.340572v-365.714286l-258.29181-258.340571z m-29.062095 69.729524l217.721905 217.673143v307.590095l-217.721905 217.721905H340.504381l-217.721905-217.721905V347.331048l217.721905-217.721905h307.590095z m-192.414476 134.095238a188.513524 188.513524 0 0 0-190.610286 187.587047c-0.731429 104.399238 83.236571 190.22019 187.63581 190.659048a182.564571 182.564571 0 0 0 115.175619-38.326857l106.300952 108.105143a25.063619 25.063619 0 0 0 17.798095 7.411809 24.380952 24.380952 0 0 0 23.01562-15.213714 24.429714 24.429714 0 0 0-4.827429-27.111619l-106.252191-108.105143a189.19619 189.19619 0 0 0 39.350858-114.834286 188.806095 188.806095 0 0 0-187.587048-190.171428z m-0.633905 50.419809a138.873905 138.873905 0 0 1 137.849905 139.654096 138.922667 138.922667 0 0 1-139.654095 137.849904 138.873905 138.873905 0 0 1-137.849905-139.702857 138.873905 138.873905 0 0 1 139.654095-137.801143z" p-id="6974"></path></svg>