<svg t="1605576736058" class="icon" viewBox="0 0 1072 1024" version="1.1" xmlns="http://www.w3.org/2000/svg" p-id="24512" width="200" height="200"><path d="M999.619048 945.980952c14.628571 0 24.380952 9.752381 24.380952 24.380953s-9.752381 24.380952-24.380952 24.380952H78.019048c-14.628571 0-24.380952-9.752381-24.380953-24.380952s9.752381-24.380952 24.380953-24.380953h921.6zM819.2 424.228571c53.638095 0 97.52381 43.885714 97.52381 97.52381V926.47619h-53.638096v-404.723809c0-24.380952-19.504762-43.885714-43.885714-43.885714h-112.152381c-14.628571 0-24.380952-9.752381-24.380952-24.380953s9.752381-24.380952 24.380952-24.380952h112.152381zM560.761905 48.761905c39.009524 0 73.142857 34.133333 73.142857 73.142857V926.47619h-48.761905V121.904762c0-14.628571-9.752381-24.380952-24.380952-24.380952h-341.333334c-14.628571 0-24.380952 9.752381-24.380952 24.380952V926.47619H146.285714V121.904762C146.285714 82.895238 180.419048 48.761905 219.428571 48.761905h341.333334zM448.609524 575.390476c14.628571 0 24.380952 9.752381 24.380952 24.380953s-9.752381 24.380952-24.380952 24.380952h-97.52381c-14.628571 0-24.380952-9.752381-24.380952-24.380952s9.752381-24.380952 24.380952-24.380953h97.52381z m0-141.409524c14.628571 0 24.380952 9.752381 24.380952 24.380953s-9.752381 24.380952-24.380952 24.380952h-97.52381c-14.628571 0-24.380952-9.752381-24.380952-24.380952s9.752381-24.380952 24.380952-24.380953h97.52381z m0-136.533333c14.628571 0 24.380952 9.752381 24.380952 24.380952s-9.752381 24.380952-24.380952 24.380953h-97.52381c-14.628571 0-24.380952-9.752381-24.380952-24.380953s9.752381-24.380952 24.380952-24.380952h97.52381z" fill="#7B7B7B" p-id="24513"></path><path d="M999.619048 1009.371429H78.019048c-19.504762 0-39.009524-19.504762-39.009524-39.009524s19.504762-39.009524 39.009524-39.009524h58.514285V121.904762c0-48.761905 39.009524-87.771429 87.771429-87.771429h341.333333c48.761905 0 87.771429 39.009524 87.771429 87.771429v809.447619h204.8v-409.6c0-14.628571-14.628571-29.257143-29.257143-29.257143h-112.152381c-19.504762 0-39.009524-19.504762-39.009524-39.009524s19.504762-39.009524 39.009524-39.009524H828.952381c58.514286 0 107.27619 48.761905 107.27619 107.276191v409.6h73.142858c19.504762 0 39.009524 19.504762 39.009523 39.009524s-29.257143 39.009524-48.761904 39.009524z m-926.476191-53.638096c-9.752381 0-14.628571 4.87619-14.628571 14.628572s4.87619 14.628571 14.628571 14.628571h921.6c9.752381 0 14.628571-4.87619 14.628572-14.628571s-4.87619-14.628571-14.628572-14.628572H73.142857z m131.657143-24.380952h365.714286V121.904762c0-4.87619-4.87619-14.628571-14.628572-14.628572h-341.333333c-4.87619 0-9.752381 4.87619-9.752381 14.628572v809.447619z m668.038095-14.628571h29.257143v-394.971429c0-43.885714-39.009524-82.895238-82.895238-82.895238h-112.152381c-9.752381 0-14.628571 4.87619-14.628571 14.628571s4.87619 14.628571 14.628571 14.628572h112.152381c29.257143 0 53.638095 24.380952 53.638095 53.638095v394.971429z m-277.942857 0h24.380952V121.904762c0-34.133333-29.257143-63.390476-63.390476-63.390476h-341.333333c-34.133333 0-58.514286 29.257143-58.514286 63.390476v794.819048h24.380953V121.904762c0-19.504762 14.628571-39.009524 39.009523-39.009524h341.333334c19.504762 0 39.009524 14.628571 39.009524 39.009524v794.819048z m-146.285714-282.819048h-97.52381c-19.504762 0-39.009524-14.628571-39.009524-39.009524s14.628571-39.009524 39.009524-39.009524h97.52381c19.504762 0 39.009524 14.628571 39.009524 39.009524s-19.504762 39.009524-39.009524 39.009524z m-102.4-48.761905c-4.87619 0-9.752381 4.87619-9.752381 9.752381s4.87619 9.752381 9.752381 9.752381h97.523809c4.87619 0 9.752381-4.87619 9.752381-9.752381s-4.87619-9.752381-9.752381-9.752381h-97.523809z m102.4-87.771428h-97.52381c-19.504762 0-39.009524-14.628571-39.009524-39.009524s14.628571-39.009524 39.009524-39.009524h97.52381c19.504762 0 39.009524 14.628571 39.009524 39.009524s-19.504762 39.009524-39.009524 39.009524z m-102.4-48.761905c-4.87619 0-9.752381 4.87619-9.752381 9.752381s4.87619 9.752381 9.752381 9.752381h97.523809c4.87619 0 9.752381-4.87619 9.752381-9.752381s-4.87619-9.752381-9.752381-9.752381h-97.523809z m102.4-92.647619h-97.52381c-19.504762 0-39.009524-14.628571-39.009524-39.009524s14.628571-39.009524 39.009524-39.009524h97.52381c19.504762 0 39.009524 14.628571 39.009524 39.009524s-19.504762 39.009524-39.009524 39.009524z m-102.4-48.761905c-4.87619 0-9.752381 4.87619-9.752381 9.752381s4.87619 9.752381 9.752381 9.752381h97.523809c4.87619 0 9.752381-4.87619 9.752381-9.752381s-4.87619-9.752381-9.752381-9.752381h-97.523809z"  p-id="24514"></path></svg>
