<svg t="1610002657468" class="icon" viewBox="0 0 1024 1024" version="1.1" xmlns="http://www.w3.org/2000/svg" p-id="24120" width="200" height="200"><path d="M759.6032 692.3776l86.3744 83.4048a45.6704 45.6704 0 0 0 64.5632-1.1264l46.7456-48.4352a45.6704 45.6704 0 0 0-1.1264-64.5632l-175.104-169.1136c27.5456-44.6464 43.4176-97.28 43.4176-153.6a292.0448 292.0448 0 0 0-64.8704-184.0128V45.6704c0-25.2416 20.4288-45.6704 45.6704-45.6704h173.056c25.2416 0 45.6704 20.48 45.6704 45.6704v810.0864c0 25.1904-20.48 45.6704-45.6704 45.6704h-173.056a45.6704 45.6704 0 0 1-45.6704-45.6704v-163.3792z m-115.4048-82.7392v246.1184c0 25.1904-20.48 45.6704-45.6704 45.6704H425.472a45.6704 45.6704 0 0 1-45.6704-45.6704v-265.6256a291.8912 291.8912 0 0 0 151.4496 42.0352 292.352 292.352 0 0 0 112.9472-22.528zM45.6704 436.224h173.056c25.2416 0 45.6704 20.48 45.6704 45.6704v373.76c0 25.2416-20.4288 45.7216-45.6704 45.7216H45.6704A45.6704 45.6704 0 0 1 0 855.7568v-373.76c0-25.2928 20.48-45.7216 45.6704-45.7216zM32.4608 937.472h959.0784c17.92 0 32.4608 14.5408 32.4608 32.4608v21.6064c0 17.92-14.5408 32.4608-32.4608 32.4608H32.4608A32.4608 32.4608 0 0 1 0 991.5392v-21.6064c0-17.92 14.5408-32.4608 32.4608-32.4608z m702.4128-439.4496l175.5136 169.5232a32.4608 32.4608 0 0 1 0.8192 45.8752l-15.0528 15.5648a32.4608 32.4608 0 0 1-45.8752 0.8192l-175.5136-169.472a32.6656 32.6656 0 0 1-3.584-4.096 258.4064 258.4064 0 1 1 63.6928-58.1632z m-203.6224 27.1872a186.3168 186.3168 0 1 0 0-372.5824 186.3168 186.3168 0 0 0 0 372.5824z" p-id="24121"></path></svg>
