<svg t="1605576552138" class="icon" viewBox="0 0 1024 1024" version="1.1" xmlns="http://www.w3.org/2000/svg" p-id="24260" width="200" height="200"><path d="M774.095238 569.58781c117.76 0 213.77219 94.159238 213.772191 209.871238a207.725714 207.725714 0 0 1-49.347048 133.997714l71.094857 69.827048a19.114667 19.114667 0 0 1 5.802667 13.702095 18.870857 18.870857 0 0 1-6.241524 13.263238 19.309714 19.309714 0 0 1-13.312 5.217524 19.602286 19.602286 0 0 1-13.799619-5.461334l-71.094857-70.022095a215.381333 215.381333 0 0 1-137.313524 48.956952c-117.76 0-213.723429-94.110476-213.723429-209.871238 0-115.516952 95.963429-209.481143 214.162286-209.481142z m0 38.034285a174.08 174.08 0 0 0-123.757714 50.468572 168.228571 168.228571 0 0 0-51.297524 121.417143 168.228571 168.228571 0 0 0 51.297524 121.124571 175.299048 175.299048 0 0 0 123.757714 50.224762h0.682667c45.738667 0 90.404571-18.041905 122.88-49.737143a169.057524 169.057524 0 0 0 51.297524-121.417143 168.813714 168.813714 0 0 0-51.297524-121.61219 174.762667 174.762667 0 0 0-123.562667-50.468572zM458.99581 40.228571c231.326476 0 418.864762 183.881143 418.864761 410.721524a376.441905 376.441905 0 0 1-10.532571 90.550857 254.878476 254.878476 0 0 0-96.060952-18.675809c-142.823619 0-258.925714 113.859048-258.925715 253.415619 0 27.989333 4.681143 55.05219 13.263238 80.700952a447.536762 447.536762 0 0 1-66.608761 5.168762c-231.326476 0-418.864762-183.881143-418.864762-411.160381C40.131048 224.109714 227.718095 40.228571 458.99581 40.228571z m0 183.442286c-91.867429 0-166.13181 72.801524-166.13181 162.377143 0 32.670476 9.99619 63.488 27.111619 88.697905h-0.438857l124.68419 195.047619a16.091429 16.091429 0 0 0 14.774858 8.874666 16.579048 16.579048 0 0 0 14.726095-8.874666l124.245333-195.047619a157.647238 157.647238 0 0 0 26.624-88.697905c0-89.575619-74.215619-162.377143-165.595428-162.377143z m0 88.210286l6.92419 0.292571c38.619429 3.413333 68.754286 35.108571 68.754286 73.874286 0 41.106286-33.792 74.215619-75.678476 74.215619-41.886476 0-75.678476-33.158095-75.678477-74.215619s33.792-74.166857 75.678477-74.166857z"  p-id="24261"></path></svg>
