<?xml version="1.0" standalone="no"?><!DOCTYPE svg PUBLIC "-//W3C//DTD SVG 1.1//EN" "http://www.w3.org/Graphics/SVG/1.1/DTD/svg11.dtd"><svg t="1608188056423" class="icon" viewBox="0 0 1024 1024" version="1.1" xmlns="http://www.w3.org/2000/svg" p-id="12016" xmlns:xlink="http://www.w3.org/1999/xlink" width="200" height="200"><defs><style type="text/css"></style></defs><path d="M779.376676 495.076033a35.709567 35.709567 0 0 0-8.639411-56.828129L545.856585 322.159813l39.03734-252.590792a33.085746 33.085746 0 0 0-17.534805-35.96555c-13.631071-6.975525-27.518125-1.663887-38.333389 9.279368L356.045516 217.846919 123.869333 105.342584c-13.631071-7.03952-32.44579-6.719542-43.261053 4.223712l0.639956 0.639956c-10.815263 10.943254-12.159172 29.054021-5.119651 42.877079L187.672986 390.891131 14.69277 563.23139c-10.815263 10.879259-16.062906 24.9583-9.151376 38.717362 6.847534 13.823058 19.134696 18.878714 34.173672 16.510875l250.478936-38.973345 115.448135 228.464436a35.197602 35.197602 0 0 0 66.235488-10.687272l39.677297-251.88684 248.431075-40.445244a35.069611 35.069611 0 0 0 19.390679-9.919325zM615.611833 569.758945l-36.861489 7.679477c-19.006705 2.367839-36.797493 17.854784-39.869284 37.117471l-4.927664 31.549851 311.850755 357.991612a56.95612 56.95612 0 0 0 68.475335 13.951049c12.799128-6.399564 25.918234-14.463015 35.645572-24.318343 12.927119-13.183102 23.806378-30.461925 32.189807-46.396839a59.963915 59.963915 0 0 0-13.95105-72.95503l-352.551982-304.619248z m231.344239-367.910936a7.03952 7.03952 0 0 0-0.639956-4.287708 6.719542 6.719542 0 0 0-7.167512-3.647751l-48.508695 8.319433-22.334479-44.47697a6.271573 6.271573 0 0 0-6.847533-3.583756c-2.943799 0.511965-4.479695 3.007795-4.99166 5.951595l-7.48749 47.99673-49.276643 9.727337c-2.943799 0.511965-5.887599 2.815808-6.399564 5.759608l0.191987 0.063995a7.295503 7.295503 0 0 0 4.031725 7.359499l44.412975 24.318343-7.807468 47.612757c-0.447969 3.007795 0.255983 5.823603 2.943799 7.167511 2.623821 1.343908 5.119651 0.703952 7.231507-1.407904l35.069611-35.773563 43.965005 22.398475a6.783538 6.783538 0 0 0 7.999455-1.407905 7.103516 7.103516 0 0 0 1.279913-8.127446l-22.206487-44.348979 34.557646-35.773562a7.103516 7.103516 0 0 0 1.919869-3.839739zM414.089561 40.578996A6.01559 6.01559 0 0 0 413.577596 36.931244a5.695612 5.695612 0 0 0-6.079586-3.071791l-41.085201 6.975525-18.942709-37.629436A5.311638 5.311638 0 0 0 341.710492 0.069755c-2.559826 0.447969-3.839738 2.559826-4.287708 5.119651l-6.399564 40.637232-41.725157 8.255438C286.866229 54.46605 284.370399 56.385919 283.922429 58.945744h0.191987c-0.383974 2.559826 1.151922 5.119651 3.391769 6.271573l37.629436 20.606596-6.655546 40.317254c-0.383974 2.559826 0.255983 4.927664 2.559825 6.079585 2.175852 1.151922 4.287708 0.639956 6.079586-1.215917l29.757973-30.269938 37.245463 18.94271a5.759608 5.759608 0 0 0 6.719542-1.151922 6.01559 6.01559 0 0 0 1.087926-6.911529l-18.750723-37.565441 29.310003-30.269937a6.01559 6.01559 0 0 0 1.599891-3.263778zM60.001684 293.041797a4.287708 4.287708 0 0 0-7.039521 0.255982l-17.342818 27.00616-30.205942-8.639411a3.96773 3.96773 0 0 0-4.671682 1.727882c-1.02393 1.663887-0.639956 3.51976 0.639956 5.055656l18.750723 24.574326-17.022841 27.966094c-1.087926 1.663887-1.279913 4.095721-0.127991 5.631617l0.063996-0.127992c1.215917 1.535895 3.391769 1.983865 5.119651 1.279913l30.653912-10.751267 18.49474 24.51033c1.151922 1.535895 2.815808 2.431834 4.54369 1.727882 1.791878-0.639956 2.559826-2.111856 2.559826-4.095721l-1.151922-32.509785 29.437995-11.45522a4.607686 4.607686 0 0 0 1.919869-7.03952 4.351704 4.351704 0 0 0-2.239847-1.535895l-30.077951-8.703408L60.961618 295.729613a4.607686 4.607686 0 0 0-0.959934-2.623821z" p-id="12017"></path></svg>