<?xml version="1.0" standalone="no"?><!DOCTYPE svg PUBLIC "-//W3C//DTD SVG 1.1//EN" "http://www.w3.org/Graphics/SVG/1.1/DTD/svg11.dtd"><svg t="1597806143393" class="icon" viewBox="0 0 1024 1024" version="1.1" xmlns="http://www.w3.org/2000/svg" p-id="15175" xmlns:xlink="http://www.w3.org/1999/xlink" width="200" height="200"><defs><style type="text/css"></style></defs><path d="M869.083429 257.316571v731.428572h-682.666667v-731.428572h682.666667z m77.433904 477.379048c13.458286 0 24.380952 11.459048 24.380953 25.648762a25.112381 25.112381 0 0 1-24.380953 25.648762 25.014857 25.014857 0 0 1-24.380952-25.648762 25.014857 25.014857 0 0 1 24.380952-25.697524z m0-102.692571c13.458286 0 24.380952 11.556571 24.380953 25.697523a25.063619 25.063619 0 0 1-24.380953 25.648762 25.014857 25.014857 0 0 1-24.380952-25.648762 25.063619 25.063619 0 0 1 24.380952-25.697523z m0-102.64381c13.458286 0 24.380952 11.50781 24.380953 25.697524a25.063619 25.063619 0 0 1-24.380953 25.6 25.014857 25.014857 0 0 1-24.380952-25.6 25.014857 25.014857 0 0 1 24.380952-25.697524z m0-102.692571c13.458286 0 24.380952 11.50781 24.380953 25.697523 0 14.140952-10.922667 25.648762-24.380953 25.648762a25.063619 25.063619 0 0 1-24.380952-25.648762c0-14.140952 10.922667-25.697524 24.380952-25.697523zM186.416762 116.199619v51.297524h633.904762V116.199619h48.761905v51.297524h146.285714v51.346286h-975.238095V167.497143h97.523809V116.199619h48.761905z m828.952381-102.692571V64.853333h-975.238095V13.507048h975.238095z" fill="#666666" p-id="15176"></path></svg>