<?xml version="1.0" standalone="no"?><!DOCTYPE svg PUBLIC "-//W3C//DTD SVG 1.1//EN" "http://www.w3.org/Graphics/SVG/1.1/DTD/svg11.dtd"><svg t="1596101701073" class="icon" viewBox="0 0 1024 1024" version="1.1" xmlns="http://www.w3.org/2000/svg" p-id="23659" xmlns:xlink="http://www.w3.org/1999/xlink" width="200" height="200"><defs><style type="text/css"></style></defs><path d="M665.6 307.2a51.2 51.2 0 0 1 51.2 51.2v614.4a51.2 51.2 0 0 1-51.2 51.2H51.2a51.2 51.2 0 0 1-51.2-51.2V358.4a51.2 51.2 0 0 1 51.2-51.2h614.4z m0 51.2H51.2v614.4h614.4V358.4z m-102.4 460.8v51.2H153.6v-51.2h409.6z m256-665.6a51.2 51.2 0 0 1 51.2 51.2v563.2h-51.2V204.8H256V153.6h563.2z m153.6-153.6a51.2 51.2 0 0 1 51.2 51.2v563.2h-51.2V51.2H409.6V0h563.2z" p-id="23660"></path></svg>