<?xml version="1.0" standalone="no"?><!DOCTYPE svg PUBLIC "-//W3C//DTD SVG 1.1//EN" "http://www.w3.org/Graphics/SVG/1.1/DTD/svg11.dtd"><svg t="1600246170985" class="icon" viewBox="0 0 1694 1024" version="1.1" xmlns="http://www.w3.org/2000/svg" p-id="9384" xmlns:xlink="http://www.w3.org/1999/xlink" width="330.859375" height="200"><defs><style type="text/css"></style></defs><path d="M564.965517 0h17.655173v1024h-17.655173zM1129.931034 0h17.655173v1024h-17.655173z" p-id="9385"></path><path d="M17.655172 512h1677.24138v17.655172H17.655172z" p-id="9386"></path><path d="M1668.413793 1024h-1641.931034C12.358621 1024 0 1011.641379 0 997.517241v-971.034482C0 12.358621 12.358621 0 26.482759 0h1641.931034c14.124138 0 26.482759 12.358621 26.482759 26.482759v971.034482c0 14.124138-12.358621 26.482759-26.482759 26.482759zM26.482759 17.655172c-5.296552 0-8.827586 3.531034-8.827587 8.827587v971.034482c0 5.296552 3.531034 8.827586 8.827587 8.827587h1641.931034c5.296552 0 8.827586-3.531034 8.827586-8.827587v-971.034482c0-5.296552-3.531034-8.827586-8.827586-8.827587h-1641.931034z" p-id="9387"></path><path d="M342.510345 370.758621h-107.696552v-21.186207h42.372414v-141.24138l-42.372414 12.358621v-21.186207l67.089655-19.420689v171.255172h42.372414V370.758621z" p-id="9388"></path><path d="M347.806897 817.434483h-24.717242V865.103448H300.137931v-47.668965h-86.510345v-15.889655l82.979311-123.586207h28.248275v120.055172h24.717242v19.42069z m-45.903449-19.42069v-77.682759-19.420689l-7.062069 14.124138-56.496551 82.97931h63.55862z" p-id="9389"></path><path d="M903.944828 370.758621h-112.993104v-21.186207l54.731035-54.731035c14.124138-14.124138 24.717241-26.482759 30.013793-35.310345 5.296552-8.827586 7.062069-17.655172 7.062069-26.482758 0-10.593103-3.531034-19.42069-8.827587-24.717242-5.296552-5.296552-14.124138-8.827586-26.482758-8.827586-15.889655 0-31.77931 7.062069-47.668966 21.186207v-24.717241c14.124138-10.593103 31.77931-17.655172 51.2-17.655173 17.655172 0 30.013793 5.296552 40.606897 14.124138s14.124138 21.186207 14.124138 37.075862c0 12.358621-3.531034 22.951724-8.827586 33.544828-7.062069 10.593103-17.655172 24.717241-35.310345 42.372414l-42.372414 42.372414h86.510345V370.758621z" p-id="9390"></path><path d="M798.013793 836.855172c12.358621 8.827586 26.482759 12.358621 38.841379 12.358621 12.358621 0 22.951724-3.531034 31.779311-10.593103 7.062069-7.062069 12.358621-15.889655 12.35862-28.248276 0-12.358621-3.531034-21.186207-12.35862-28.248276-8.827586-7.062069-19.42069-10.593103-35.310345-10.593104-7.062069 0-17.655172 0-30.013793 1.765518v-95.337931h91.806896v21.186207h-70.620689v52.965517h15.889655c19.42069 0 35.310345 5.296552 45.903448 14.124138s15.889655 22.951724 15.889655 40.606896c0 17.655172-5.296552 33.544828-17.655172 44.137931s-28.248276 17.655172-49.434483 17.655173c-17.655172 0-30.013793-1.765517-38.841379-7.062069v-24.717242z" p-id="9391"></path><path d="M1359.448276 338.97931c12.358621 10.593103 26.482759 14.124138 44.137931 14.124138 12.358621 0 22.951724-3.531034 30.013793-8.827586 7.062069-7.062069 10.593103-14.124138 10.593103-24.717241 0-22.951724-17.655172-35.310345-51.2-35.310345H1377.103448V264.827586h14.124138c30.013793 0 44.137931-10.593103 44.137931-33.544827 0-21.186207-10.593103-30.013793-33.544827-30.013793-12.358621 0-24.717241 5.296552-37.075862 14.124137v-22.951724c12.358621-7.062069 26.482759-10.593103 42.372413-10.593103 15.889655 0 28.248276 3.531034 38.84138 12.358621 8.827586 8.827586 14.124138 19.42069 14.124138 31.77931 0 24.717241-12.358621 40.606897-37.075862 47.668965 14.124138 1.765517 24.717241 7.062069 31.77931 14.124138 7.062069 8.827586 12.358621 17.655172 12.358621 30.013793 0 17.655172-5.296552 30.013793-17.655173 40.606897-12.358621 10.593103-28.248276 15.889655-47.668965 15.889655-17.655172 0-31.77931-3.531034-42.372414-10.593103v-24.717242z" p-id="9392"></path><path d="M1465.37931 702.675862c-10.593103-5.296552-19.42069-7.062069-30.013793-7.062069-15.889655 0-30.013793 7.062069-38.841379 21.186207s-14.124138 33.544828-14.124138 58.262069c8.827586-17.655172 22.951724-26.482759 42.372414-26.482759 15.889655 0 28.248276 5.296552 38.841379 15.889656s14.124138 24.717241 14.124138 42.372413-5.296552 33.544828-15.889655 44.137931c-10.593103 12.358621-24.717241 17.655172-42.372414 17.655173-19.42069 0-33.544828-7.062069-44.137931-22.951724-10.593103-14.124138-15.889655-35.310345-15.889655-63.558621 0-33.544828 7.062069-60.027586 21.186207-79.448276 14.124138-19.42069 33.544828-30.013793 56.496551-30.013793 14.124138 0 22.951724 1.765517 31.779311 5.296552v24.717241z m-82.97931 100.634483c0 12.358621 3.531034 22.951724 10.593103 31.77931 7.062069 8.827586 15.889655 12.358621 26.482759 12.358621s19.42069-3.531034 24.717241-10.593104 8.827586-17.655172 8.827587-30.013793-3.531034-22.951724-8.827587-30.013793c-5.296552-7.062069-14.124138-10.593103-26.482758-10.593103-10.593103 0-19.42069 3.531034-26.482759 10.593103s-8.827586 17.655172-8.827586 26.482759z" p-id="9393"></path></svg>