<?xml version="1.0" standalone="no"?><!DOCTYPE svg PUBLIC "-//W3C//DTD SVG 1.1//EN" "http://www.w3.org/Graphics/SVG/1.1/DTD/svg11.dtd"><svg t="1600246150576" class="icon" viewBox="0 0 1694 1024" version="1.1" xmlns="http://www.w3.org/2000/svg" p-id="8863" xmlns:xlink="http://www.w3.org/1999/xlink" width="330.859375" height="200"><defs><style type="text/css"></style></defs><path d="M829.793103 0h17.655173v1024h-17.655173z" p-id="8864"></path><path d="M1668.413793 1024h-1641.931034C12.358621 1024 0 1011.641379 0 997.517241v-971.034482C0 12.358621 12.358621 0 26.482759 0h1641.931034c14.124138 0 26.482759 12.358621 26.482759 26.482759v971.034482c0 14.124138-12.358621 26.482759-26.482759 26.482759zM26.482759 17.655172c-5.296552 0-8.827586 3.531034-8.827587 8.827587v971.034482c0 5.296552 3.531034 8.827586 8.827587 8.827587h1641.931034c5.296552 0 8.827586-3.531034 8.827586-8.827587v-971.034482c0-5.296552-3.531034-8.827586-8.827586-8.827587h-1641.931034z" p-id="8865"></path><path d="M448.441379 617.931034h-107.696551v-21.186206h42.372413v-141.24138l-42.372413 12.358621v-21.186207l67.089655-19.42069v171.255173h42.372414V617.931034z" p-id="8866"></path><path d="M1327.668966 617.931034h-112.993104v-21.186206l54.731035-54.731035c14.124138-14.124138 24.717241-26.482759 30.013793-35.310345 5.296552-8.827586 7.062069-17.655172 7.062069-26.482758 0-10.593103-3.531034-19.42069-8.827587-24.717242-5.296552-5.296552-14.124138-8.827586-26.482758-8.827586-15.889655 0-31.77931 7.062069-47.668966 21.186207v-24.717241c14.124138-10.593103 31.77931-17.655172 51.2-17.655173 17.655172 0 30.013793 5.296552 40.606897 14.124138s14.124138 21.186207 14.124138 37.075862c0 12.358621-3.531034 22.951724-8.827586 33.544828-7.062069 10.593103-17.655172 24.717241-35.310345 42.372414l-42.372414 42.372413h86.510345V617.931034z" p-id="8867"></path></svg>