<?xml version="1.0" standalone="no"?><!DOCTYPE svg PUBLIC "-//W3C//DTD SVG 1.1//EN" "http://www.w3.org/Graphics/SVG/1.1/DTD/svg11.dtd"><svg t="1597310589389" class="icon" viewBox="0 0 1024 1024" version="1.1" xmlns="http://www.w3.org/2000/svg" p-id="8013" xmlns:xlink="http://www.w3.org/1999/xlink" width="200" height="200"><defs><style type="text/css"></style></defs><path d="M772.193524 539.89181c125.903238 1.657905 226.742857 105.618286 225.182476 233.569523-1.560381 127.951238-104.886857 229.473524-230.741333 227.913143-126.488381-1.511619-227.328-105.520762-225.767619-233.569524 1.560381-127.951238 104.838095-229.424762 231.326476-227.913142z m16.335238 151.795809c-3.413333-1.755429-6.826667 0.487619-6.875429 3.31581l-0.487619 39.009523-149.699047-1.755428c-5.656381-0.146286-9.118476 3.267048-9.167238 9.020952l-0.682667 56.271238c-0.048762 5.12 3.31581 9.216 8.97219 9.264762l149.699048 1.852953-0.487619 37.302857c0 4.047238 3.364571 6.339048 6.777905 4.096l127.951238-73.630476c2.876952-1.657905 2.925714-6.192762 0.097524-7.996953zM76.263619 26.185143l831.634286 10.24a45.982476 45.982476 0 0 1 44.909714 47.640381L948.516571 433.980952l-0.536381 63.292953a290.230857 290.230857 0 0 0-59.343238-33.01181h-0.536381a250.63619 250.63619 0 0 0-39.009523-12.970666 279.356952 279.356952 0 0 0-67.340191-9.264762 275.992381 275.992381 0 0 0-44.324571 3.315809 286.378667 286.378667 0 0 0-231.960381 190.902857 272.920381 272.920381 0 0 0-12.824381 48.664381 221.720381 221.720381 0 0 0-3.754667 37.888l-0.536381 9.216c0 15.60381 0.536381 31.353905 3.218286 46.470096l-53.979429-0.48762-370.395428-4.924952a45.446095 45.446095 0 0 1-44.860953-47.006476L29.793524 72.118857c0.536381-25.941333 21.942857-46.470095 46.470095-45.933714z m783.018667 188.708571c-230.887619 4.87619-366.640762 298.569143-366.640762 298.569143S391.606857 404.23619 301.29981 402.090667c-90.307048 0-195.584 277.942857-195.584 277.942857l333.482666 4.388571c2.681905-21.650286 7.996952-44.373333 15.993905-66.023619a339.626667 339.626667 0 0 1 274.18819-226.596571c15.506286-2.730667 33.645714-3.803429 52.906667-3.803429 25.648762 0.487619 50.224762 3.267048 74.264381 9.752381zM306.663619 122.489905c-51.346286-1.072762-93.037714 40.569905-94.110476 91.91619a93.622857 93.622857 0 0 0 91.428571 95.232 93.379048 93.379048 0 0 0 93.525334-92.501333A92.647619 92.647619 0 0 0 306.663619 122.392381z" p-id="8014"></path></svg>