<?xml version="1.0" standalone="no"?><!DOCTYPE svg PUBLIC "-//W3C//DTD SVG 1.1//EN" "http://www.w3.org/Graphics/SVG/1.1/DTD/svg11.dtd"><svg t="1600246143873" class="icon" viewBox="0 0 1694 1024" version="1.1" xmlns="http://www.w3.org/2000/svg" p-id="8737" xmlns:xlink="http://www.w3.org/1999/xlink" width="330.859375" height="200"><defs><style type="text/css"></style></defs><path d="M1668.413793 1024h-1641.931034C12.358621 1024 0 1011.641379 0 997.517241v-971.034482C0 12.358621 12.358621 0 26.482759 0h1641.931034c14.124138 0 26.482759 12.358621 26.482759 26.482759v971.034482c0 14.124138-12.358621 26.482759-26.482759 26.482759zM26.482759 17.655172c-5.296552 0-8.827586 3.531034-8.827587 8.827587v971.034482c0 5.296552 3.531034 8.827586 8.827587 8.827587h1641.931034c5.296552 0 8.827586-3.531034 8.827586-8.827587v-971.034482c0-5.296552-3.531034-8.827586-8.827586-8.827587h-1641.931034z" p-id="8738"></path><path d="M907.475862 617.931034h-107.696552v-21.186206h42.372414v-141.24138l-42.372414 12.358621v-21.186207l67.089656-19.42069v171.255173h42.372413V617.931034z" p-id="8739"></path></svg>