<?xml version="1.0" standalone="no"?><!DOCTYPE svg PUBLIC "-//W3C//DTD SVG 1.1//EN" "http://www.w3.org/Graphics/SVG/1.1/DTD/svg11.dtd"><svg t="1594349571931" class="icon" viewBox="0 0 1024 1024" version="1.1" xmlns="http://www.w3.org/2000/svg" p-id="2237" width="200" height="200" xmlns:xlink="http://www.w3.org/1999/xlink"><defs><style type="text/css"></style></defs><path d="M407.9 98.2c-170.7 0-309 138.3-309 309s138.3 309 309 309 309-138.3 309-309c0-170.6-138.3-309-309-309z m0 564c-140.8 0-255-114.2-255-255s114.2-255 255-255 255 114.2 255 255-114.2 255-255 255zM602.3 615.9c-7.7 7.8-7.6 20.6 0.2 28.3l274.1 270.1c7.8 7.7 20.6 7.6 28.3-0.2l8-8.1c7.7-7.8 7.6-20.6-0.2-28.3L638.6 607.5c-7.8-7.7-20.6-7.6-28.3 0.2l-8 8.2z" p-id="2238"></path></svg>