<svg t="1601447397381" class="icon" viewBox="0 0 1024 1024" version="1.1" xmlns="http://www.w3.org/2000/svg" p-id="24745" width="200" height="200"><path d="M35.449905 729.721905c11.215238 0 19.992381 8.679619 19.992381 19.748571v220.452572h224.792381c10.727619 0 19.017143 8.192 19.017143 18.773333v10.581333c0 10.581333-8.289524 18.724571-19.017143 18.724572H6.680381V749.470476c0-11.068952 8.777143-19.748571 19.992381-19.748571h8.777143z m926.47619 0c11.215238 0 19.992381 8.679619 19.992381 19.748571v268.53181h-273.554286a18.578286 18.578286 0 0 1-19.017142-18.724572v-10.581333c0-10.581333 8.289524-18.773333 19.017142-18.773333h224.792381V749.470476c0-11.068952 8.777143-19.748571 19.992381-19.748571zM531.260952 218.258286v37.059047h36.327619l0.292572 405.504h110.592v-147.553523h73.679238V329.045333h110.543238v513.414096H125.952v-255.414858h35.986286V477.086476h38.863238l-0.682667-74.605714H309.150476l0.195048 74.459428h37.302857v183.198477h37.059048V255.463619h36.961523v-37.205333h110.592zM280.234667 42.715429c10.727619 0 19.017143 8.192 19.017143 18.773333v10.581333c0 10.581333-8.289524 18.724571-19.017143 18.724572h-224.792381v220.501333c0 11.068952-8.777143 19.69981-19.992381 19.69981h-8.777143a19.602286 19.602286 0 0 1-19.992381-19.69981V42.715429z m701.683809 0v268.580571c0 11.068952-8.777143 19.69981-19.992381 19.69981h-8.777143a19.602286 19.602286 0 0 1-19.992381-19.69981V90.794667h-224.792381a18.578286 18.578286 0 0 1-19.017142-18.724572v-10.581333c0-10.581333 8.289524-18.773333 19.017142-18.773333h273.554286z" p-id="24746"></path></svg>
