<svg t="1601447877440" class="icon" viewBox="0 0 1024 1024" version="1.1" xmlns="http://www.w3.org/2000/svg" p-id="24995" width="200" height="200"><path d="M738.596571 262.046476l261.071239 724.406857h-975.238096L286.573714 459.337143l164.035048 256.78019 287.987809-454.070857zM787.553524 11.264l-30.037334 153.502476-36.815238-33.011809L470.79619 447.146667a23.747048 23.747048 0 0 1-17.261714 9.020952 22.137905 22.137905 0 0 1-18.041905-7.070476L267.068952 277.455238l-174.957714 312.076191a23.698286 23.698286 0 0 1-32.426667 9.118476 24.576 24.576 0 0 1-8.874666-33.158095L241.225143 225.767619a23.552 23.552 0 0 1 17.554286-11.995429 22.625524 22.625524 0 0 1 19.992381 6.826667l171.641904 175.055238 234.447238-295.887238-42.76419-38.278095L787.553524 11.215238z" p-id="24996"></path></svg>
