<svg t="1601447820529" class="icon" viewBox="0 0 1024 1024" version="1.1" xmlns="http://www.w3.org/2000/svg" p-id="24870" width="200" height="200"><path d="M53.199238 710.265905c11.215238 0 19.992381 8.679619 19.992381 19.748571v220.501334h224.792381c10.727619 0 19.017143 8.143238 19.017143 18.724571v10.581333c0 10.581333-8.289524 18.724571-19.017143 18.724572H24.429714V729.965714c0-11.068952 8.777143-19.748571 19.992381-19.748571h8.777143z m926.476191 0c11.215238 0 19.992381 8.679619 19.992381 19.748571v268.53181h-273.554286a18.578286 18.578286 0 0 1-19.017143-18.724572v-10.581333c0-10.581333 8.289524-18.724571 19.017143-18.724571h224.792381V729.965714c0-11.068952 8.777143-19.748571 19.992381-19.748571z m-451.535239 117.51619c8.777143 0 15.945143 6.972952 15.945143 15.60381v86.113524a15.847619 15.847619 0 0 1-15.945143 15.603809h-24.08838a15.896381 15.896381 0 0 1-15.993905-15.603809v-86.113524c0-8.630857 7.168-15.60381 15.993905-15.60381h24.08838z m-253.805714-99.523047l17.066667 16.676571a15.262476 15.262476 0 0 1 0 22.040381l-62.317714 60.903619a16.286476 16.286476 0 0 1-22.625524 0l-17.017905-16.627809a15.408762 15.408762 0 0 1-0.292571-21.796572l0.292571-0.292571 62.317714-60.952381a16.237714 16.237714 0 0 1 22.576762 0z m503.710476-5.510096l62.317715 60.903619a15.36 15.36 0 0 1 0.292571 21.74781l-0.292571 0.292571-17.017905 16.676572a16.286476 16.286476 0 0 1-22.625524 0l-62.317714-60.952381a15.311238 15.311238 0 0 1 0-22.040381l17.066666-16.62781a16.091429 16.091429 0 0 1 22.576762 0z m-257.950476-450.462476c137.020952 0 248.100571 108.592762 248.100572 242.492953 0 86.698667-47.299048 166.716952-124.050286 210.066285a253.025524 253.025524 0 0 1-248.149333 0c-76.751238-43.398095-124.050286-123.367619-124.050286-210.066285 0-133.90019 111.079619-242.492952 248.198095-242.492953zM167.936 483.523048c8.777143 0 15.993905 6.972952 15.993905 15.603809v23.552a15.847619 15.847619 0 0 1-15.993905 15.60381H79.823238a15.750095 15.750095 0 0 1-15.993905-15.60381v-23.552c0-8.630857 7.168-15.60381 15.993905-15.603809h88.112762z m776.387048-7.801905c8.825905 0 15.993905 6.972952 15.993904 15.603809v23.503238a15.798857 15.798857 0 0 1-15.945142 15.60381H856.259048a15.847619 15.847619 0 0 1-15.993905-15.60381v-23.503238c0-8.630857 7.168-15.60381 15.993905-15.603809h88.112762zM297.984 23.210667c10.727619 0 19.017143 8.240762 19.017143 18.822095v10.581333c0 10.581333-8.289524 18.724571-19.017143 18.724572h-224.792381v220.501333c0 11.068952-8.777143 19.748571-19.992381 19.748571h-8.777143a19.651048 19.651048 0 0 1-19.992381-19.748571V23.259429z m701.68381 0v268.629333c0 11.068952-8.777143 19.748571-19.992381 19.748571h-8.777143a19.651048 19.651048 0 0 1-19.992381-19.748571V71.338667h-224.792381a18.578286 18.578286 0 0 1-19.017143-18.724572V42.032762c0-10.581333 8.289524-18.773333 19.017143-18.773333h273.554286zM223.427048 191.634286L285.744762 252.537905a15.408762 15.408762 0 0 1 0.341333 21.796571l-0.341333 0.292572-17.017905 16.579047a16.237714 16.237714 0 0 1-22.576762 0L183.832381 230.4a15.408762 15.408762 0 0 1-0.292571-21.796571l0.292571-0.292572 17.066667-16.627809a16.091429 16.091429 0 0 1 22.528 0z m594.261333-5.558857l17.066667 16.676571a15.408762 15.408762 0 0 1 0.292571 21.796571l-0.292571 0.292572L772.388571 285.744762a16.237714 16.237714 0 0 1-22.576761 0l-17.017905-16.676572a15.36 15.36 0 0 1-0.390095-21.699047l0.390095-0.390095 62.268952-60.952381a16.237714 16.237714 0 0 1 22.576762 0z m-297.545143-109.372953c8.825905 0 15.993905 7.021714 15.993905 15.555048v86.162286a15.750095 15.750095 0 0 1-15.993905 15.603809h-24.088381a15.750095 15.750095 0 0 1-15.945143-15.603809V92.257524c0-8.533333 7.168-15.60381 15.945143-15.60381h24.088381z" p-id="24871"></path></svg>
