<?xml version="1.0" standalone="no"?><!DOCTYPE svg PUBLIC "-//W3C//DTD SVG 1.1//EN" "http://www.w3.org/Graphics/SVG/1.1/DTD/svg11.dtd"><svg t="1605079287790" class="icon" viewBox="0 0 1024 1024" version="1.1" xmlns="http://www.w3.org/2000/svg" p-id="13614" xmlns:xlink="http://www.w3.org/1999/xlink" width="200" height="200"><defs><style type="text/css"></style></defs><path d="M977.066667 405.333333c-4.266667-17.066667-17.066667-25.6-34.133334-29.866666l-273.066666-38.4-123.733334-247.466667c-8.533333-21.333333-34.133333-29.866667-55.466666-17.066667-8.533333 4.266667-12.8 12.8-17.066667 17.066667L354.133333 332.8l-273.066666 42.666667c-17.066667 0-29.866667 12.8-38.4 29.866666-4.266667 17.066667 0 34.133333 12.8 42.666667L251.733333 640l-46.933333 273.066667c-4.266667 21.333333 12.8 46.933333 34.133333 51.2 8.533333 0 17.066667 0 25.6-4.266667l243.2-128 243.2 128c4.266667 4.266667 12.8 4.266667 21.333334 4.266667s17.066667-4.266667 25.6-8.533334c12.8-8.533333 21.333333-25.6 17.066666-42.666666l-42.666666-273.066667 196.266666-192c12.8-12.8 17.066667-29.866667 8.533334-42.666667z" p-id="13615"></path></svg>