<?xml version="1.0" standalone="no"?><!DOCTYPE svg PUBLIC "-//W3C//DTD SVG 1.1//EN" "http://www.w3.org/Graphics/SVG/1.1/DTD/svg11.dtd"><svg t="1597310597644" class="icon" viewBox="0 0 1075 1024" version="1.1" xmlns="http://www.w3.org/2000/svg" p-id="8143" xmlns:xlink="http://www.w3.org/1999/xlink" width="209.9609375" height="200"><defs><style type="text/css"></style></defs><path d="M810.1376 512c141.312 0 256 114.688 256 256s-114.688 256-256 256-256-114.688-256-256 114.688-256 256-256z m178.176-512c43.008 0 77.824 32.768 77.824 72.704v324.608c-0.1536 25.7536-1.9456 51.5584-21.504 70.144l-38.4 35.84a329.3184 329.3184 0 0 0-460.288 68.608 328.5504 328.5504 0 0 0-12.8 373.76c-11.264 8.704-25.6 13.312-39.936 13.312-16.896 0-33.28-6.144-45.568-17.92l-386.56-361.984c-12.288-10.752-18.944-26.624-18.944-42.496 0-16.384 6.656-31.232 18.944-43.008l505.856-473.6c21.504-19.968 54.272-19.968 75.776-19.968z m-70.144 626.688c-8.704 0-16.384 3.072-23.04 8.704l-84.992 85.504-86.016-85.504c-13.312-12.288-32.256-11.264-46.08 1.536-11.264 11.776-11.776 30.72 0 47.616l84.992 83.456-84.992 84.992c-11.776 11.776-11.776 31.744 1.024 47.616 6.144 5.632 14.336 8.704 23.04 8.704 7.68 0 16.384-2.048 23.552-8.704l84.48-85.504 84.992 84.992a34.8672 34.8672 0 0 0 47.104-1.024c11.776-11.776 11.776-32.256 0.512-45.056L857.2416 768l85.504-86.016c11.264-12.8 11.264-31.744-1.536-46.592a33.8944 33.8944 0 0 0-23.04-8.704z m-74.24-522.24c-29.696 0-57.856 10.752-78.848 30.208-40.96 37.376-43.52 100.352-6.656 140.8 2.048 2.56 4.608 4.608 6.656 6.656a116.1216 116.1216 0 0 0 157.184 0c40.96-36.864 43.52-100.352 6.656-140.8a40.96 40.96 0 0 0-6.656-6.656c-21.504-19.968-49.664-30.72-78.336-30.208z m0 50.688c15.36 0 29.696 5.632 39.936 15.36 20.992 18.944 22.528 51.2 3.584 71.68-1.024 1.536-2.048 2.56-3.584 3.584a59.4432 59.4432 0 0 1-29.9008 14.1824l-6.5024 0.7168h-6.656a61.184 61.184 0 0 1-36.8128-14.848c-20.992-18.944-22.528-51.2-3.584-71.68 1.024-1.536 2.56-2.56 3.584-3.584 10.752-9.728 25.088-15.36 39.936-15.36z" p-id="8144"></path></svg>