<?xml version="1.0" standalone="no"?><!DOCTYPE svg PUBLIC "-//W3C//DTD SVG 1.1//EN" "http://www.w3.org/Graphics/SVG/1.1/DTD/svg11.dtd"><svg t="1594707538589" class="icon" viewBox="0 0 1024 1024" version="1.1" xmlns="http://www.w3.org/2000/svg" p-id="6845" xmlns:xlink="http://www.w3.org/1999/xlink" width="170" height="170"><defs><style type="text/css"></style></defs><path d="M995.555556 546.133333l-460.8 187.733334c-11.377778 5.688889-17.066667 5.688889-22.755556 5.688889-5.688889 0-11.377778 0-17.066667-5.688889L28.444444 546.133333c-17.066667-11.377778-28.444444-22.755556-28.444444-45.511111 0-28.444444 22.755556-45.511111 51.2-45.511111h17.066667L512 637.155556 955.733333 455.111111h22.755556c22.755556 0 45.511111 17.066667 45.511111 45.511111 0 22.755556-11.377778 34.133333-28.444444 45.511111z m0-204.8L529.066667 529.066667c-5.688889 0-11.377778 5.688889-17.066667 5.688889-5.688889 0-11.377778 0-17.066667-5.688889L28.444444 341.333333c-17.066667-11.377778-28.444444-28.444444-28.444444-45.511111s11.377778-34.133333 28.444444-45.511111l460.8-187.733333c11.377778-5.688889 17.066667-5.688889 22.755556-5.688889 5.688889 0 11.377778 0 17.066667 5.688889l460.8 187.733333c22.755556 5.688889 34.133333 22.755556 34.133333 45.511111 0 17.066667-11.377778 34.133333-28.444444 45.511111zM51.2 659.911111c5.688889 0 11.377778 0 17.066667 5.688889L512 847.644444l443.733333-182.044444c5.688889 0 11.377778-5.688889 17.066667-5.688889 28.444444 0 45.511111 22.755556 45.511111 45.511111 0 17.066667-11.377778 34.133333-28.444444 45.511111l-460.8 187.733334c-5.688889 0-11.377778 5.688889-17.066667 5.688889-5.688889 0-11.377778 0-17.066667-5.688889L34.133333 750.933333c-22.755556-5.688889-34.133333-22.755556-34.133333-45.511111s22.755556-45.511111 51.2-45.511111z" p-id="6846"></path></svg>