<?xml version="1.0" standalone="no"?><!DOCTYPE svg PUBLIC "-//W3C//DTD SVG 1.1//EN" "http://www.w3.org/Graphics/SVG/1.1/DTD/svg11.dtd"><svg t="1599122289798" class="icon" viewBox="0 0 1024 1024" version="1.1" xmlns="http://www.w3.org/2000/svg" p-id="28745" xmlns:xlink="http://www.w3.org/1999/xlink" width="200" height="200"><defs><style type="text/css"></style></defs><path d="M767.641048 877.194406a109.604528 109.604528 0 1 0 0-219.260224 109.604528 109.604528 0 0 0 0 219.260224z m76.753871 146.19054a32.134287 32.134287 0 0 1-24.100716-10.950219c-8.084741-9.261634-33.260011-33.260011-53.983556-33.260011-20.467699 0-46.052323 24.203054-53.471863 32.64598a32.134287 32.134287 0 0 1-36.330166 8.084741l-0.716369-0.307016-62.682328-37.097704-0.6652-0.562862a33.004164 33.004164 0 0 1-10.080342-38.530443s5.833294-14.071543 5.833294-26.863855c0-38.888628-29.88284-70.511223-66.520021-70.511222h-2.814309c-10.540865 0-19.03496-9.824495-21.798099-25.17527a362.687625 362.687625 0 0 1-5.270433-53.113679c0-22.821484 5.116925-51.834447 5.270433-53.062509 2.814309-15.555451 11.56425-25.482285 22.309792-25.226439h2.149108c36.73952 0 66.520021-31.520256 66.520021-70.408884a82.535996 82.535996 0 0 0-5.730955-26.966194 32.901826 32.901826 0 0 1 10.233849-38.479274l0.614031-0.511692 66.161837-38.530443 0.818708-0.255847a32.543641 32.543641 0 0 1 36.278996 7.931234c7.675387 8.596434 32.492472 31.315579 52.653156 31.315579 19.802499 0 44.363737-22.258623 52.192632-30.701548a32.543641 32.543641 0 0 1 36.176658-7.675387l0.818708 0.255846 63.91039 37.711735 0.61403 0.409354a33.055334 33.055334 0 0 1 10.182681 38.581613 81.614949 81.614949 0 0 0-5.833294 26.863854c0 38.888628 29.93401 70.460054 66.520021 70.460054h2.251447c10.643203-0.153508 19.444314 9.670988 22.207453 25.072931 0.204677 1.38157 5.372771 30.394533 5.372771 53.216017 0 22.923823-5.116925 51.936786-5.372771 53.113679-2.814309 15.453113-11.56425 25.431116-22.207453 25.17527h-2.200278c-36.637181 0-66.520021 31.622595-66.520021 70.511222 0 12.792312 5.730956 26.863855 5.782125 26.966194a32.901826 32.901826 0 0 1-10.23385 38.376935l-0.614031 0.614031-64.984944 37.967582-0.767538 0.409354A28.654778 28.654778 0 0 1 844.29258 1023.384946z m-42.982168-868.393296c15.094928 0 29.371148 5.577448 40.11669 15.555451a50.811063 50.811063 0 0 1 0 75.167624 60.993743 60.993743 0 0 1-80.131041 0 50.811063 50.811063 0 0 1 0-75.218793c10.796711-10.029172 25.1241-15.60662 39.963182-15.504282z m-0.153508 157.550112c29.524656 0 57.514234-10.89905 78.595964-30.496871a99.780032 99.780032 0 0 0 0-147.367432 114.363268 114.363268 0 0 0-78.698302-30.445702 114.107421 114.107421 0 0 0-78.595964 30.445702 99.780032 99.780032 0 0 0 0 147.367432c20.979391 19.597822 48.866631 30.496871 78.595964 30.496871h0.102338z m162.308853 190.656616a329.01826 329.01826 0 0 0-472.752676 442.102296 66.520021 66.520021 0 0 1-39.860844 12.996989 66.213006 66.213006 0 0 1-45.54063-17.65339L18.932621 578.724187a57.821249 57.821249 0 0 1-18.830283-42.572814c0-16.118313 6.652002-31.213241 18.830283-42.623983L524.587123 20.058345C545.975869 0 578.826525 0 600.471117 0h345.136573c42.879829 0 77.879594 32.748318 77.879594 72.967347v316.584133c0 28.143086 0.153508 57.309557-21.439914 77.623748l-38.581613 36.02315h0.102339z" p-id="28746"></path></svg>
