<?xml version="1.0" standalone="no"?><!DOCTYPE svg PUBLIC "-//W3C//DTD SVG 1.1//EN" "http://www.w3.org/Graphics/SVG/1.1/DTD/svg11.dtd"><svg t="1599533714687" class="icon" viewBox="0 0 1024 1024" version="1.1" xmlns="http://www.w3.org/2000/svg" p-id="9803" xmlns:xlink="http://www.w3.org/1999/xlink" width="200" height="200"><defs><style type="text/css"></style></defs><path d="M975.481905 687.591619l-0.048762 19.504762c0 8.582095-1.170286 80.896-33.548191 92.793905l-405.113904 196.217904c-20.48 10.971429-36.717714 16.14019-51.882667 16.188953-15.701333 0-30.47619-5.656381-48.420571-17.066667L32.377905 799.939048c-30.378667-21.894095-31.695238-80.359619-31.597715-92.257524v-19.504762l80.749715 42.76419 405.942857 200.508953 407.015619-200.996572 80.944762-42.861714z m0.487619-196.461714v19.992381c0 0.487619-1.170286 69.924571-30.72 90.89219l-1.901714 0.926476-406.089143 196.656762c-20.48 11.02019-36.668952 16.237714-51.833905 16.237715-15.701333 0-30.47619-5.656381-48.420572-17.066667L32.865524 603.428571c-30.329905-21.894095-31.548952-80.408381-31.548953-91.769904v-19.992381l80.749715 43.203047 405.942857 200.021334 407.015619-200.899048 80.944762-42.910476z m-435.248762-436.906667l404.48 229.571048c13.799619 7.558095 22.77181 24.234667 24.576 46.567619 1.852952 22.820571-4.388571 52.760381-23.405714 68.022857l-408.527238 197.680762c-20.48 11.410286-36.668952 16.676571-51.882667 16.676571-15.213714 0-29.93981-5.705143-47.494095-16.676571-0.487619 0-0.487619-0.438857-0.975238-0.438857L33.450667 400.335238c-19.504762-12.336762-30.329905-33.743238-30.232381-58.026667 0.048762-24.234667 11.02019-45.641143 29.598476-57.539047l406.674286-230.936381c42.422857-22.381714 65.682286-22.430476 101.229714 0.390095z" p-id="9804"></path></svg>
