<?xml version="1.0" standalone="no"?>
<!DOCTYPE svg PUBLIC "-//W3C//DTD SVG 1.1//EN" "http://www.w3.org/Graphics/SVG/1.1/DTD/svg11.dtd">
<svg
  t="1592992155311"
  class="icon"
  viewBox="0 0 1024 1024"
  version="1.1"
  xmlns="http://www.w3.org/2000/svg"
  p-id="3637"
  xmlns:xlink="http://www.w3.org/1999/xlink"
  width="200"
  height="200"
>
  <defs><style type="text/css"></style></defs>
  <path
    d="M512 0C229.717333 0 0 229.717333 0 512s229.717333 512 512 512 512-229.717333 512-512S794.282667 0 512 0"
    fill="#FFFFFF"
    p-id="3638"
  ></path>
  <path
    d="M498.176 553.514667c102.4 0 304.426667 58.112 304.426667 163.285333-66.432 99.626667-177.152 168.832-304.426667 168.832-127.317333 0-238.037333-69.205333-304.426667-168.832 0-105.173333 202.026667-163.285333 304.426667-163.285333zM512 166.058667c85.76 0 152.234667 66.432 152.234667 152.192 0 85.802667-66.432 152.234667-152.234667 152.234666-85.76 0-152.234667-66.432-152.234667-152.234666 0-85.76 66.432-152.192 152.234667-152.192z"
    p-id="3639"
  ></path>
</svg>
