<svg t="1601447355703" class="icon" viewBox="0 0 1024 1024" version="1.1" xmlns="http://www.w3.org/2000/svg" p-id="24620" width="200" height="200"><path d="M68.900571 729.721905c11.215238 0 19.992381 8.679619 19.992381 19.748571v220.452572h224.792381c10.727619 0 19.017143 8.192 19.017143 18.773333v10.581333c0 10.581333-8.289524 18.724571-19.017143 18.724572H40.131048V749.470476c0-11.068952 8.777143-19.748571 19.992381-19.748571h8.777142z m926.476191 0c11.215238 0 19.992381 8.679619 19.992381 19.748571v268.53181h-273.554286a18.578286 18.578286 0 0 1-19.017143-18.724572v-10.581333c0-10.581333 8.289524-18.773333 19.017143-18.773333h224.792381V749.470476c0-11.068952 8.777143-19.748571 19.992381-19.748571z m-446.659048-177.688381v252.928c-55.881143 11.410286-111.762286 25.112381-170.422857 36.473905-44.714667 9.118476-89.429333 20.528762-137.020952 29.647238-30.72 0-55.832381-20.48-55.832381-45.592381v-273.456762h363.27619z m321.340953-2.29181v152.722286c0 29.598476-27.89181 38.716952-55.832381 45.543619-5.607619 2.29181-13.994667 2.29181-19.553524 4.534857l-192.804572 41.057524v-243.809524h268.190477z m-268.239238-284.867047l100.644571 20.48c39.107048 6.875429 78.214095 13.702095 114.541714 22.820571 30.72 6.875429 53.101714 20.528762 53.101715 45.543619v152.722286h-268.288V264.874667zM244.150857 189.68381c69.827048 15.945143 142.482286 29.744762 212.358095 43.398095l92.16 20.48v252.928H188.220952v-271.116191c0-25.161143 25.161143-45.689905 55.929905-45.689904zM313.685333 42.715429c10.727619 0 19.017143 8.192 19.017143 18.773333v10.581333c0 10.581333-8.289524 18.724571-19.017143 18.724572h-224.792381v220.501333c0 11.068952-8.777143 19.69981-19.992381 19.69981h-8.777142a19.602286 19.602286 0 0 1-19.992381-19.69981V42.715429z m701.68381 0v268.580571c0 11.068952-8.777143 19.69981-19.992381 19.69981h-8.777143a19.602286 19.602286 0 0 1-19.992381-19.69981V90.794667h-224.792381a18.578286 18.578286 0 0 1-19.017143-18.724572v-10.581333c0-10.581333 8.289524-18.773333 19.017143-18.773333h273.554286z" p-id="24621"></path></svg>
