<svg t="1601447315369" class="icon" viewBox="0 0 1024 1024" version="1.1" xmlns="http://www.w3.org/2000/svg" p-id="24495" width="200" height="200"><path d="M53.19997 729.721905c11.215238 0 19.992381 8.679619 19.99238 19.748571v220.452572h224.792381c10.727619 0 19.017143 8.192 19.017143 18.773333v10.581333c0 10.581333-8.289524 18.724571-19.017143 18.724572H24.430446V749.470476c0-11.068952 8.777143-19.748571 19.992381-19.748571h8.777143z m926.47619 0c11.215238 0 19.992381 8.679619 19.992381 19.748571v268.53181h-273.554286a18.578286 18.578286 0 0 1-19.017143-18.724572v-10.581333c0-10.581333 8.289524-18.773333 19.017143-18.773333h224.792381V749.470476c0-11.068952 8.777143-19.748571 19.992381-19.748571zM511.123017 257.316571c150.186667 0 254.049524 79.481905 314.806857 146.041905 43.398095 47.494095 84.406857 110.494476 84.406857 129.706667 0 13.019429-27.745524 82.407619-92.16 148.23619-78.311619 79.969524-183.247238 122.09981-303.445333 122.09981-161.889524 0-263.753143-74.947048-320.707048-137.654857-55.491048-61.391238-80.213333-120.539429-80.213333-132.729905 0-18.041905 39.69219-80.213333 79.969524-125.805714 60.806095-68.559238 165.205333-149.894095 317.342476-149.894096z m3.31581 106.886096a165.449143 165.449143 0 0 0-165.205334 165.205333 165.449143 165.449143 0 0 0 165.205334 165.205333 165.497905 165.497905 0 0 0 165.449143-165.205333A165.449143 165.449143 0 0 0 514.438827 364.251429z m0.292571 18.285714l8.630857 0.243809a146.773333 146.773333 0 0 1 95.378286 42.812953l5.168762 5.510095 0.341333 0.341333 0.633905 0.731429 1.170286 1.316571 1.462857 1.804191 1.950476 2.291809 2.048 2.681905 2.438095 3.169524 0.438857 0.585143 2.048 2.974476 2.584381 3.949714 2.633143 4.388572 1.414095 2.291809 1.219048 2.340572 2.584381 4.87619 0.048762 0.146286 1.657905 3.608381 0.146285 0.341333 0.585143 1.365334 0.975238 1.950476 0.585143 1.511619 0.780191 2.145524 0.243809 0.536381 1.170286 3.169523 0.146286 0.24381 0.633904 1.950476 0.487619 1.365333 1.26781 3.949715 0.195048 0.585143 0.048761 0.292571 0.877715 3.413333 0.877714 2.974476 0.341333 1.316572v0.195048l0.975238 4.729904 0.048762 0.390096 0.633905 2.876952 0.24381 1.462857 0.341333 2.438095 0.24381 2.048 0.390095 2.389334 0.097524 1.80419 0.097523 0.780191 0.292572 3.169523 0.243809 2.681905V521.99619l0.097524 2.633143 0.097524 2.730667 0.048762 1.901714v0.24381l-0.048762 1.657905-0.048762 0.975238v0.341333l-0.097524 4.047238v1.365333l-0.585143 5.851429-0.195047 2.584381-0.633905 4.388571-0.585143 3.949715-0.633905 2.925714-1.024 5.266286-0.341333 1.316571-1.755429 6.38781-1.999238 6.144-0.633904 1.950476-1.560381 3.949714-1.414096 3.705905-0.926476 1.950476-2.438095 5.36381v0.097523l-2.584381 4.876191-1.219048 2.340571-1.462857 2.340572-2.633143 4.388571-0.097523 0.195048-2.486858 3.705905-1.999238 3.023238-0.487619 0.536381-2.438095 3.169523-1.950476 2.730667-1.999238 2.243048-1.511619 1.80419-1.121524 1.26781-0.633905 0.828952-0.341333 0.24381-5.168762 5.607619a146.724571 146.724571 0 0 1-95.378286 42.812952l-8.630857 0.24381-8.582095-0.24381a146.334476 146.334476 0 0 1-95.085714-42.812952l-5.36381-5.607619-0.243809-0.24381-0.633905-0.828952-1.072762-1.26781-1.560381-1.80419-1.950476-2.243048-1.999238-2.730667-2.438096-3.169523-0.438857-0.536381-2.048-3.023238-2.438095-3.705905-0.146286-0.24381-2.681904-4.339809-1.365334-2.340572-1.219047-2.340571-2.535619-4.876191-0.097524-0.146285-2.438096-5.315048-0.877714-1.950476-1.462857-3.705905-1.511619-3.900952a146.18819 146.18819 0 0 1-2.584381-7.801905l-0.048762-0.341333-1.755428-6.339048-0.292572-1.365333-1.170286-5.315048-0.487619-2.876952-0.633904-3.900953-0.633905-4.388571-0.24381-2.681905-0.487619-5.851428-0.048762-1.316572-0.146285-4.047238v-1.316571l-0.097524-1.657905 0.048762-0.24381v-1.901714l0.146285-2.730667v-3.120762l0.097524-0.877714 0.195048-2.681905 0.292571-3.169523 0.097524-0.780191 0.146286-1.80419 0.292571-2.389334 0.341334-2.048 0.292571-2.438095 0.292571-1.462857 0.536381-2.876952 0.097524-0.390096 0.975238-4.729904 0.097524-0.195048 0.292572-1.316572 0.828952-3.023238 0.926476-3.364571 0.048762-0.292571 0.24381-0.585143 1.219047-3.900953 0.487619-1.414095 0.633905-1.950476 0.097524-0.24381 1.170286-3.169523 0.243809-0.48762 0.828952-2.194285 0.633905-1.511619 0.877714-1.950476 0.097524-0.341334 0.487619-0.975238 0.146286-0.390095 1.706667-3.608381 0.097524-0.146286 2.535619-4.87619 1.219047-2.340572 1.365334-2.340571 2.633142-4.33981 2.584381-3.900952 2.096762-3.023238 0.390095-0.585143 2.438096-3.169524 2.096762-2.681905 1.852952-2.291809 1.511619-1.804191 1.170286-1.316571 0.633905-0.731429 0.292571-0.341333 5.266286-5.510095a146.383238 146.383238 0 0 1 95.085714-42.812953l8.630857-0.243809z m0 48.615619l-7.314286 0.292571-7.119238 0.780191c-11.800381 1.755429-22.918095 5.656381-32.963047 11.215238l-0.926477 0.536381-4.924952 3.072-5.168762 3.608381-0.487619 0.341333a98.937905 98.937905 0 0 0-5.266286 4.291048l-2.535619 2.340571-2.438095 2.340572-4.583619 4.87619-0.146286 0.146286-2.925714 3.608381-0.243809 0.341333-0.877715 1.024-0.243809 0.390095-1.316572 1.852953-1.170285 1.560381-1.462858 2.194285-0.390095 0.48762-1.901714 3.169523-0.097524 0.195048-1.170286 2.048-0.731428 1.316571-1.950476 3.949715-0.292572 0.536381-0.146285 0.341333-1.462858 3.413333-1.219047 3.023238-0.487619 1.219048-0.097524 0.24381-1.560381 4.729904-0.146286 0.390096-0.731428 2.82819-0.390096 1.511619-0.633904 2.486857-0.390096 1.999238-0.487619 2.340572-0.341333 1.852952-0.097524 0.828952-0.390095 3.120762-0.292571 2.681905-0.097524 1.316572-0.097524 2.681904-0.097524 2.730667-0.097524 1.901714v0.24381l0.097524 1.657905v1.316571l0.195048 4.096 0.097524 1.26781 0.682666 5.851428 0.487619 2.633143 0.828953 4.388571 0.975238 3.949715 0.78019 2.925714 1.755429 5.217524 0.487619 1.365333c0.877714 2.194286 1.755429 4.33981 2.730667 6.436572l0.097523 0.243809 3.023238 5.900191 1.121524 1.950476 2.438095 3.949714 2.584381 3.657143 1.365334 1.950476c1.365333 1.852952 2.82819 3.657143 4.291047 5.36381l0.097524 0.097523 4.583619 4.876191 2.438095 2.291809 2.584381 2.438096c1.706667 1.462857 3.462095 2.925714 5.315048 4.339809l0.292571 0.195048 5.315048 3.754666 4.876191 2.925715 0.975238 0.633904c10.044952 5.558857 21.162667 9.45981 32.963047 11.215239l6.729143 0.731428 0.438857 0.048762 7.314286 0.292571c2.438095 0 4.87619-0.097524 7.314286-0.292571h0.438857l6.729143-0.78019c11.849143-1.755429 23.015619-5.656381 33.060571-11.215239l0.975238-0.633904 4.924953-2.925715 5.315047-3.754666c2.145524-1.609143 3.900952-3.023238 5.656381-4.534857l2.535619-2.438096 2.438095-2.243047 4.486096-4.876191c1.706667-1.852952 3.169524-3.657143 4.534857-5.461333l1.365333-1.950476 2.584381-3.705905 2.340572-3.998476 1.219047-1.901714 2.925714-5.851429c1.170286-2.438095 2.096762-4.534857 2.925715-6.729143l0.390095-1.365333 1.852952-5.266286 0.780191-2.876952 0.975238-3.900953 0.78019-4.388571 0.536381-2.633143 0.682667-5.851429 0.146286-1.316571 0.146285-4.096v-1.316571l0.097524-1.657905v-0.24381l-0.048762-1.901714-0.146285-2.730667-0.048762-2.681904-0.146286-1.316572-0.341333-2.681905-0.341334-3.120762-0.195047-0.828952-0.341334-1.852952-0.341333-2.340572-0.390095-1.950476-0.682667-2.535619-0.438857-1.462857-0.682667-2.876952-0.146285-0.390096-1.657905-4.729904v-0.24381l-0.487619-1.219048-1.316572-3.072-1.365333-3.364571L603.673112 487.619048l-0.292571-0.487619-1.950476-3.998477-0.682667-1.316571-1.267809-2.048-0.048762-0.195048-1.950477-3.169523-0.292571-0.48762-1.511619-2.194285-1.170286-1.560381-1.267809-1.852953-0.292572-0.390095-0.877714-0.975238-0.243809-0.390095-2.925715-3.608381-0.195047-0.195048-4.437334-4.827428-2.584381-2.340572-2.438095-2.340571a98.986667 98.986667 0 0 0-5.363809-4.291048l-0.438858-0.341333-5.168761-3.608381-5.022477-3.072-0.877714-0.487619a97.475048 97.475048 0 0 0-40.228571-12.044191l-7.314286-0.292571z m-31.548952 37.497905l4.681143 0.341333 4.486095 0.975238 0.828952 0.341334 3.413334 1.316571 1.121523 0.585143 2.779429 1.609143 2.82819 2.096762 0.731429 0.585142c1.072762 0.975238 2.145524 1.999238 3.120762 3.120762l0.097524 0.195048 1.560381 1.999238 0.975238 1.414095a31.939048 31.939048 0 0 1 2.194285 3.900953l0.195048 0.536381 0.097524 0.341333 1.365333 3.413333 0.585143 2.974476 0.341333 1.26781 0.048762 0.292571 0.341334 4.729905-0.048762 0.341334-0.24381 2.82819v1.511619l-0.585143 2.438095-0.487619 2.048-0.926476 2.340572-0.682667 1.950476-0.487619 0.682667-1.657904 3.218285-1.999238 2.633143-0.682667 0.926476a32.182857 32.182857 0 0 1-6.680381 5.851429l-3.413333 1.80419-0.487619 0.341334a31.451429 31.451429 0 0 1-8.728381 2.633143l-4.681143 0.341333-4.729905-0.341333a31.98781 31.98781 0 0 1-8.777143-2.633143l-0.585143-0.341334-3.413333-1.852952a32.182857 32.182857 0 0 1-3.559619-2.681905l-2.779429-2.730666-0.390095-0.390096-0.682667-0.926476-1.950476-2.633143-1.80419-3.218285-0.438857-0.731429-0.780191-1.901714-0.828952-2.340572-0.487619-2.048-0.487619-2.438095-0.195048-1.462857-0.146286-2.876952a32.182857 32.182857 0 0 1 0.292572-5.071239v-0.292571l0.292571-1.26781 0.731429-2.974476 1.219047-3.413333 0.146286-0.341333 0.24381-0.487619a31.841524 31.841524 0 0 1 2.194285-3.949715l0.975238-1.414095 1.560381-1.950476a36.961524 36.961524 0 0 1 3.31581-3.413333l0.731428-0.48762 2.876953-2.145523 2.82819-1.609143 1.121524-0.585143 3.31581-1.316571 0.926476-0.292572a32.036571 32.036571 0 0 1 4.534857-0.975238l4.729905-0.390095zM297.984731 42.715429c10.727619 0 19.017143 8.192 19.017143 18.773333v10.581333c0 10.581333-8.289524 18.724571-19.017143 18.724572h-224.792381v220.501333c0 11.068952-8.777143 19.69981-19.99238 19.69981h-8.777143a19.602286 19.602286 0 0 1-19.992381-19.69981V42.715429z m701.68381 0v268.580571c0 11.068952-8.777143 19.69981-19.992381 19.69981h-8.777143a19.602286 19.602286 0 0 1-19.992381-19.69981V90.794667h-224.792381a18.578286 18.578286 0 0 1-19.017143-18.724572v-10.581333c0-10.581333 8.289524-18.773333 19.017143-18.773333h273.554286z" p-id="24496"></path></svg>
