<?xml version="1.0" standalone="no"?><!DOCTYPE svg PUBLIC "-//W3C//DTD SVG 1.1//EN" "http://www.w3.org/Graphics/SVG/1.1/DTD/svg11.dtd"><svg t="1608188044794" class="icon" viewBox="0 0 1260 1024" version="1.1" xmlns="http://www.w3.org/2000/svg" p-id="11766" xmlns:xlink="http://www.w3.org/1999/xlink" width="246.09375" height="200"><defs><style type="text/css"></style></defs><path d="M314.840615 251.904h629.681231v503.729231H314.840615zM125.952 125.952V0h125.952v188.888615a63.015385 63.015385 0 0 1-63.015385 63.015385H0v-126.030769h125.952z m0 755.554462v125.952h125.952v-188.888616a63.015385 63.015385 0 0 0-63.015385-63.015384H0v126.030769h125.952zM1133.410462 126.030769V0H1007.458462v188.888615a63.015385 63.015385 0 0 0 63.015384 63.015385h188.888616v-126.030769h-126.03077z m0 755.554462v125.952H1007.458462v-188.888616a63.015385 63.015385 0 0 1 63.015384-63.015384h188.888616v126.030769h-126.03077z" p-id="11767"></path></svg>